STARTFONT 2.1
FONT -FontForge-Hanalei-Book-R-Normal--20-200-72-72-P-101-ISO10646-1
SIZE 20 72 72
FONTBOUNDINGBOX 26 26 -1 -5
COMMENT "Generated by fontforge, http://fontforge.sourceforge.net"
COMMENT "Copyright (c) 2012 by Brian J. Bonislawsky DBA Astigmatic (AOETI) (astigma@astigmatic.com), with ReservedFont Name "Hanalei""
STARTPROPERTIES 39
FOUNDRY "FontForge"
FAMILY_NAME "Hanalei"
WEIGHT_NAME "Book"
SLANT "R"
SETWIDTH_NAME "Normal"
ADD_STYLE_NAME ""
PIXEL_SIZE 20
POINT_SIZE 200
RESOLUTION_X 72
RESOLUTION_Y 72
SPACING "P"
AVERAGE_WIDTH 101
CHARSET_REGISTRY "ISO10646"
CHARSET_ENCODING "1"
FONTNAME_REGISTRY ""
CHARSET_COLLECTIONS "ISO8859-2 ISO8859-9 ISO8859-4 ISO10646-1"
FONT_NAME "Hanalei-Regular"
FACE_NAME "Hanalei"
COPYRIGHT "Copyright (c) 2012 by Brian J. Bonislawsky DBA Astigmatic (AOETI) (astigma@astigmatic.com), with ReservedFont Name "Hanalei""
FONT_VERSION "1.000"
FONT_ASCENT 16
FONT_DESCENT 4
UNDERLINE_POSITION -3
UNDERLINE_THICKNESS 1
X_HEIGHT 12
CAP_HEIGHT 12
RAW_ASCENT 799
RAW_DESCENT 200
NORM_SPACE 4
RELATIVE_WEIGHT 40
RELATIVE_SETWIDTH 50
SUPERSCRIPT_X 0
SUPERSCRIPT_Y 9
SUPERSCRIPT_SIZE 12
SUBSCRIPT_X 0
SUBSCRIPT_Y 2
SUBSCRIPT_SIZE 12
AVG_LOWERCASE_WIDTH 107
AVG_UPPERCASE_WIDTH 105
ENDPROPERTIES
CHARS 366
STARTCHAR space
ENCODING 32
SWIDTH 200 0
DWIDTH 4 0
BBX 1 1 0 0
BITMAP
00
ENDCHAR
STARTCHAR exclam
ENCODING 33
SWIDTH 257 0
DWIDTH 5 0
BBX 4 14 1 0
BITMAP
E0
90
90
A0
A0
E0
A0
A0
A0
A0
40
E0
A0
E0
ENDCHAR
STARTCHAR quotedbl
ENCODING 34
SWIDTH 476 0
DWIDTH 10 0
BBX 8 9 1 6
BITMAP
C6
A9
A9
E9
AF
A9
A9
99
66
ENDCHAR
STARTCHAR numbersign
ENCODING 35
SWIDTH 1076 0
DWIDTH 22 0
BBX 20 14 1 0
BITMAP
F1CFE0
993110
995170
955F90
FDB290
965290
9253F0
925F10
F7D110
994FE0
94C600
94C9E0
94C820
E3C7E0
ENDCHAR
STARTCHAR dollar
ENCODING 36
SWIDTH 453 0
DWIDTH 9 0
BBX 9 19 0 -3
BITMAP
0C00
1200
1400
1300
1C80
6880
8700
5800
AC00
6B00
1080
0D00
7A80
8700
8400
7400
1400
1400
0800
ENDCHAR
STARTCHAR percent
ENCODING 37
SWIDTH 889 0
DWIDTH 18 0
BBX 17 14 0 0
BITMAP
7C6000
629000
9E9000
AAA000
AAA000
DAE000
CAAF00
3D5880
01D780
015680
015680
025E80
027280
018F00
ENDCHAR
STARTCHAR ampersand
ENCODING 38
SWIDTH 627 0
DWIDTH 13 0
BBX 13 15 0 0
BITMAP
0800
1FE0
25A0
2760
1520
1640
1A80
2900
2900
4FF0
9488
9A48
EA70
8E20
F1C0
ENDCHAR
STARTCHAR quotesingle
ENCODING 39
SWIDTH 246 0
DWIDTH 5 0
BBX 3 9 1 6
BITMAP
C0
A0
A0
E0
A0
A0
A0
A0
40
ENDCHAR
STARTCHAR parenleft
ENCODING 40
SWIDTH 387 0
DWIDTH 8 0
BBX 8 16 0 -1
BITMAP
1C
12
12
24
58
48
90
90
B0
48
4C
34
22
11
09
0E
ENDCHAR
STARTCHAR parenright
ENCODING 41
SWIDTH 386 0
DWIDTH 8 0
BBX 8 16 0 -1
BITMAP
70
48
48
2C
34
12
11
09
09
16
34
2C
48
90
90
60
ENDCHAR
STARTCHAR asterisk
ENCODING 42
SWIDTH 517 0
DWIDTH 10 0
BBX 10 9 0 5
BITMAP
0E00
0C00
EDC0
9240
7180
1A00
2D00
5280
3300
ENDCHAR
STARTCHAR plus
ENCODING 43
SWIDTH 458 0
DWIDTH 9 0
BBX 9 9 0 2
BITMAP
0C00
1200
5400
AB80
8480
AB80
5400
1400
0C00
ENDCHAR
STARTCHAR comma
ENCODING 44
SWIDTH 228 0
DWIDTH 5 0
BBX 5 6 -1 -3
BITMAP
10
28
48
90
90
60
ENDCHAR
STARTCHAR hyphen
ENCODING 45
SWIDTH 465 0
DWIDTH 9 0
BBX 9 4 0 5
BITMAP
7900
8680
8480
7F80
ENDCHAR
STARTCHAR period
ENCODING 46
SWIDTH 202 0
DWIDTH 4 0
BBX 4 3 0 0
BITMAP
60
90
F0
ENDCHAR
STARTCHAR slash
ENCODING 47
SWIDTH 453 0
DWIDTH 9 0
BBX 9 14 0 0
BITMAP
0700
0480
0480
0900
0D00
1200
1200
2400
3400
2C00
4800
8800
9000
7000
ENDCHAR
STARTCHAR zero
ENCODING 48
SWIDTH 646 0
DWIDTH 13 0
BBX 13 15 0 0
BITMAP
0400
0B00
1100
1280
3640
4DA0
4910
F088
90C8
8938
4EA0
3640
1880
0900
0700
ENDCHAR
STARTCHAR one
ENCODING 49
SWIDTH 400 0
DWIDTH 8 0
BBX 8 14 0 0
BITMAP
1E
29
CA
92
BE
52
0A
0A
12
1E
0A
0A
12
1E
ENDCHAR
STARTCHAR two
ENCODING 50
SWIDTH 502 0
DWIDTH 10 0
BBX 10 14 0 0
BITMAP
0C00
1600
2500
C880
9440
62C0
0540
0880
1500
2200
4400
4B80
B440
7F80
ENDCHAR
STARTCHAR three
ENCODING 51
SWIDTH 456 0
DWIDTH 9 0
BBX 9 14 0 0
BITMAP
7000
8E00
8100
7E80
1900
2600
5C00
6200
3100
0E80
3880
C880
8700
7800
ENDCHAR
STARTCHAR four
ENCODING 52
SWIDTH 514 0
DWIDTH 10 0
BBX 10 14 0 0
BITMAP
0F80
0A80
1280
2480
3780
4C80
9480
9F40
A240
7FC0
0480
0480
0480
0780
ENDCHAR
STARTCHAR five
ENCODING 53
SWIDTH 500 0
DWIDTH 10 0
BBX 10 14 0 0
BITMAP
2F80
5480
5480
5F80
5000
BF00
4580
4640
3E40
0240
7F80
88C0
8880
7F80
ENDCHAR
STARTCHAR six
ENCODING 54
SWIDTH 520 0
DWIDTH 10 0
BBX 11 15 0 -1
BITMAP
1C00
1200
2400
2400
3C00
2400
4A00
4980
7D40
4B20
94C0
9880
9180
7600
0800
ENDCHAR
STARTCHAR seven
ENCODING 55
SWIDTH 423 0
DWIDTH 8 0
BBX 9 14 0 0
BITMAP
7F00
8880
8880
FF00
0900
0F00
0A00
1200
1A00
1600
2400
2400
4400
3800
ENDCHAR
STARTCHAR eight
ENCODING 56
SWIDTH 527 0
DWIDTH 11 0
BBX 10 14 0 0
BITMAP
7F80
4440
45C0
FE40
4A40
3C80
2280
3100
2900
4E80
4C80
9E40
9240
7FC0
ENDCHAR
STARTCHAR nine
ENCODING 57
SWIDTH 500 0
DWIDTH 10 0
BBX 10 14 0 0
BITMAP
0200
3DC0
C940
8B40
BC80
CF80
4480
2900
1900
1600
1200
2400
2400
3C00
ENDCHAR
STARTCHAR colon
ENCODING 58
SWIDTH 245 0
DWIDTH 5 0
BBX 3 10 1 0
BITMAP
E0
A0
E0
00
00
00
00
E0
A0
E0
ENDCHAR
STARTCHAR semicolon
ENCODING 59
SWIDTH 270 0
DWIDTH 5 0
BBX 5 13 0 -3
BITMAP
78
48
30
00
00
00
00
30
48
48
90
A0
40
ENDCHAR
STARTCHAR less
ENCODING 60
SWIDTH 445 0
DWIDTH 9 0
BBX 8 11 0 1
BITMAP
07
19
29
CA
8C
58
A4
6B
19
05
02
ENDCHAR
STARTCHAR equal
ENCODING 61
SWIDTH 484 0
DWIDTH 10 0
BBX 8 9 1 3
BITMAP
F2
8D
89
FF
00
F2
8D
89
FF
ENDCHAR
STARTCHAR greater
ENCODING 62
SWIDTH 445 0
DWIDTH 9 0
BBX 7 11 1 1
BITMAP
E0
98
94
62
12
1E
22
D6
98
A0
40
ENDCHAR
STARTCHAR question
ENCODING 63
SWIDTH 455 0
DWIDTH 9 0
BBX 9 14 0 0
BITMAP
7000
8E00
8580
7880
0E80
3180
2200
3400
2800
6800
1000
3000
4800
7800
ENDCHAR
STARTCHAR at
ENCODING 64
SWIDTH 812 0
DWIDTH 16 0
BBX 15 16 1 -1
BITMAP
6800
57F0
84A8
FFE8
AFEC
F134
AFD4
B33C
B4B4
FFFA
B12A
AFEC
B014
AE00
6900
1600
ENDCHAR
STARTCHAR A
ENCODING 65
SWIDTH 507 0
DWIDTH 10 0
BBX 11 14 0 0
BITMAP
1C00
2600
2500
2500
3500
4700
4C80
4CC0
7F20
4A20
53C0
9E40
9240
7180
ENDCHAR
STARTCHAR B
ENCODING 66
SWIDTH 533 0
DWIDTH 11 0
BBX 10 16 1 -1
BITMAP
2000
DC00
8700
E4C0
9840
F780
9880
A900
9700
F880
9C80
9A80
E980
8200
9C00
6000
ENDCHAR
STARTCHAR C
ENCODING 67
SWIDTH 515 0
DWIDTH 10 0
BBX 10 15 0 -1
BITMAP
3FC0
4240
4240
3FC0
7800
4800
4800
4800
7800
4800
9FC0
9240
7240
5F80
2000
ENDCHAR
STARTCHAR D
ENCODING 68
SWIDTH 520 0
DWIDTH 10 0
BBX 10 15 1 0
BITMAP
3000
C800
C800
E600
9200
F500
9CC0
A240
9380
FCC0
9500
9200
A400
9800
F800
ENDCHAR
STARTCHAR E
ENCODING 69
SWIDTH 490 0
DWIDTH 10 0
BBX 9 14 1 0
BITMAP
FF00
9880
9880
9F00
F000
9C00
A200
9200
FC00
9000
9F00
A880
9880
EF00
ENDCHAR
STARTCHAR F
ENCODING 70
SWIDTH 475 0
DWIDTH 10 0
BBX 9 14 1 0
BITMAP
FF00
9880
9880
9F00
F000
9C00
A200
9200
FC00
9000
A000
A000
9000
E000
ENDCHAR
STARTCHAR G
ENCODING 71
SWIDTH 557 0
DWIDTH 11 0
BBX 11 15 0 -1
BITMAP
3FC0
4240
4240
3FC0
7800
4800
49E0
4920
7920
49E0
9F20
9320
7320
5FC0
2000
ENDCHAR
STARTCHAR H
ENCODING 72
SWIDTH 611 0
DWIDTH 12 0
BBX 11 14 1 0
BITMAP
E3C0
9240
9240
9240
F3C0
9240
9240
93A0
FD20
99E0
AF40
B240
9240
E3C0
ENDCHAR
STARTCHAR I
ENCODING 73
SWIDTH 266 0
DWIDTH 5 0
BBX 4 14 1 0
BITMAP
E0
90
90
90
F0
90
A0
90
F0
90
A0
A0
90
E0
ENDCHAR
STARTCHAR J
ENCODING 74
SWIDTH 484 0
DWIDTH 10 0
BBX 9 15 0 -1
BITMAP
0380
0480
0480
0480
0780
0480
0480
E480
9780
8C80
5480
2480
1280
1380
0C00
ENDCHAR
STARTCHAR K
ENCODING 75
SWIDTH 541 0
DWIDTH 11 0
BBX 10 14 1 0
BITMAP
E180
9240
9240
9480
FB00
9100
A200
9600
F900
9F00
9880
A480
9440
E380
ENDCHAR
STARTCHAR L
ENCODING 76
SWIDTH 467 0
DWIDTH 9 0
BBX 9 14 1 0
BITMAP
E000
9000
9000
9000
F000
9000
A000
9000
F000
9000
9F00
A880
9080
FF00
ENDCHAR
STARTCHAR M
ENCODING 77
SWIDTH 733 0
DWIDTH 15 0
BBX 15 14 0 0
BITMAP
3870
2448
2498
2A98
7AD8
4D38
4924
4924
6DE4
5EAC
94D4
92D4
9252
739E
ENDCHAR
STARTCHAR N
ENCODING 78
SWIDTH 598 0
DWIDTH 12 0
BBX 10 14 1 0
BITMAP
F1C0
9140
9940
9940
FDC0
9640
9240
9240
F7C0
9940
A4C0
A4C0
94C0
E3C0
ENDCHAR
STARTCHAR O
ENCODING 79
SWIDTH 612 0
DWIDTH 12 0
BBX 12 15 0 -1
BITMAP
3FC0
4220
4220
3FE0
79E0
4920
48A0
48A0
78F0
4890
9FE0
9210
7230
5FE0
2000
ENDCHAR
STARTCHAR P
ENCODING 80
SWIDTH 513 0
DWIDTH 10 0
BBX 10 15 1 0
BITMAP
2000
D800
8600
E580
9840
F680
9580
9900
A600
D400
B800
9000
A000
9000
F000
ENDCHAR
STARTCHAR Q
ENCODING 81
SWIDTH 612 0
DWIDTH 12 0
BBX 12 17 0 -3
BITMAP
3FC0
4220
4220
3FE0
79E0
4920
48A0
48A0
78F0
4890
9FE0
9210
7230
5FE0
2900
0900
0700
ENDCHAR
STARTCHAR R
ENCODING 82
SWIDTH 532 0
DWIDTH 11 0
BBX 10 15 1 0
BITMAP
2000
5800
8600
C580
B840
D680
B580
9D80
AA00
9100
FB00
9480
A480
9240
F380
ENDCHAR
STARTCHAR S
ENCODING 83
SWIDTH 442 0
DWIDTH 9 0
BBX 9 14 0 0
BITMAP
5F80
6880
9B80
9400
4800
3400
2400
1200
1600
0900
1900
EC80
8D00
FA00
ENDCHAR
STARTCHAR T
ENCODING 84
SWIDTH 453 0
DWIDTH 9 0
BBX 9 14 0 0
BITMAP
FF80
8880
8A80
F580
1200
1C00
1400
1400
1200
1E00
1400
1400
2200
1C00
ENDCHAR
STARTCHAR U
ENCODING 85
SWIDTH 583 0
DWIDTH 12 0
BBX 11 15 0 -1
BITMAP
39C0
4920
4920
4920
79E0
4920
4920
4920
69E0
5120
5FE0
9420
9460
7FE0
2000
ENDCHAR
STARTCHAR V
ENCODING 86
SWIDTH 506 0
DWIDTH 10 0
BBX 10 14 0 0
BITMAP
6000
93C0
9240
9240
5B40
6A80
4C80
4C80
2780
3C80
2500
2900
2900
3E00
ENDCHAR
STARTCHAR W
ENCODING 87
SWIDTH 735 0
DWIDTH 15 0
BBX 15 14 0 0
BITMAP
601C
9392
9494
92A4
4E74
6DEC
4D24
4928
2FE8
3958
2948
2AC8
3288
3E78
ENDCHAR
STARTCHAR X
ENCODING 88
SWIDTH 483 0
DWIDTH 10 0
BBX 10 13 0 0
BITMAP
F380
9440
4C80
4D00
3B00
1200
1200
3700
4D00
4C80
9440
9240
6380
ENDCHAR
STARTCHAR Y
ENCODING 89
SWIDTH 484 0
DWIDTH 10 0
BBX 10 14 0 0
BITMAP
4180
A240
9240
8A80
5680
2580
2900
1900
0E00
1200
1200
2400
2400
1800
ENDCHAR
STARTCHAR Z
ENCODING 90
SWIDTH 458 0
DWIDTH 9 0
BBX 9 14 0 0
BITMAP
7F00
4880
4880
7F80
0D00
1200
1200
2400
3400
4C00
4F00
9880
9880
7F00
ENDCHAR
STARTCHAR bracketleft
ENCODING 91
SWIDTH 420 0
DWIDTH 8 0
BBX 8 16 0 -1
BITMAP
0F
71
4F
50
50
70
90
50
50
50
A8
50
50
9F
D1
3F
ENDCHAR
STARTCHAR backslash
ENCODING 92
SWIDTH 453 0
DWIDTH 9 0
BBX 9 14 0 0
BITMAP
7000
9000
9000
4800
5800
2400
2400
1200
1600
1900
0900
0880
0480
0700
ENDCHAR
STARTCHAR bracketright
ENCODING 93
SWIDTH 420 0
DWIDTH 8 0
BBX 8 16 0 -1
BITMAP
F8
86
E9
19
09
0F
09
09
09
09
0F
09
09
F9
89
FE
ENDCHAR
STARTCHAR asciicircum
ENCODING 94
SWIDTH 353 0
DWIDTH 7 0
BBX 7 5 0 8
BITMAP
38
28
54
AA
6C
ENDCHAR
STARTCHAR underscore
ENCODING 95
SWIDTH 499 0
DWIDTH 10 0
BBX 8 4 1 -5
BITMAP
F8
8F
89
FF
ENDCHAR
STARTCHAR grave
ENCODING 96
SWIDTH 183 0
DWIDTH 4 0
BBX 4 4 0 15
BITMAP
E0
A0
50
20
ENDCHAR
STARTCHAR a
ENCODING 97
SWIDTH 507 0
DWIDTH 10 0
BBX 11 14 0 0
BITMAP
1C00
2600
2500
2500
3500
4700
4C80
4CC0
7F20
4A20
53C0
9E40
9240
7180
ENDCHAR
STARTCHAR b
ENCODING 98
SWIDTH 533 0
DWIDTH 11 0
BBX 10 16 1 -1
BITMAP
2000
DC00
8700
E4C0
9840
F780
9880
A900
9700
F880
9C80
9A80
E980
8200
9C00
6000
ENDCHAR
STARTCHAR c
ENCODING 99
SWIDTH 515 0
DWIDTH 10 0
BBX 10 15 0 -1
BITMAP
3FC0
4240
4240
3FC0
7800
4800
4800
4800
7800
4800
9FC0
9240
7240
5F80
2000
ENDCHAR
STARTCHAR d
ENCODING 100
SWIDTH 520 0
DWIDTH 10 0
BBX 10 15 1 0
BITMAP
3000
C800
C800
E600
9200
F500
9CC0
A240
9380
FCC0
9500
9200
A400
9800
F800
ENDCHAR
STARTCHAR e
ENCODING 101
SWIDTH 490 0
DWIDTH 10 0
BBX 9 14 1 0
BITMAP
FF00
9880
9880
9F00
F000
9C00
A200
9200
FC00
9000
9F00
A880
9880
EF00
ENDCHAR
STARTCHAR f
ENCODING 102
SWIDTH 475 0
DWIDTH 10 0
BBX 9 14 1 0
BITMAP
FF00
9880
9880
9F00
F000
9C00
A200
9200
FC00
9000
A000
A000
9000
E000
ENDCHAR
STARTCHAR g
ENCODING 103
SWIDTH 557 0
DWIDTH 11 0
BBX 11 15 0 -1
BITMAP
3FC0
4240
4240
3FC0
7800
4800
49E0
4920
7920
49E0
9F20
9320
7320
5FC0
2000
ENDCHAR
STARTCHAR h
ENCODING 104
SWIDTH 611 0
DWIDTH 12 0
BBX 11 14 1 0
BITMAP
E3C0
9240
9240
9240
F3C0
9240
9240
93A0
FD20
99E0
AF40
B240
9240
E3C0
ENDCHAR
STARTCHAR i
ENCODING 105
SWIDTH 266 0
DWIDTH 5 0
BBX 4 14 1 0
BITMAP
E0
90
90
90
F0
90
A0
90
F0
90
A0
A0
90
E0
ENDCHAR
STARTCHAR j
ENCODING 106
SWIDTH 482 0
DWIDTH 10 0
BBX 9 15 0 -1
BITMAP
0380
0480
0480
0480
0780
0480
0480
E480
9780
8C80
5480
2480
1280
1380
0C00
ENDCHAR
STARTCHAR k
ENCODING 107
SWIDTH 541 0
DWIDTH 11 0
BBX 10 14 1 0
BITMAP
E180
9240
9240
9480
FB00
9100
A200
9600
F900
9F00
9880
A480
9440
E380
ENDCHAR
STARTCHAR l
ENCODING 108
SWIDTH 467 0
DWIDTH 9 0
BBX 9 14 1 0
BITMAP
E000
9000
9000
9000
F000
9000
A000
9000
F000
9000
9F00
A880
9080
FF00
ENDCHAR
STARTCHAR m
ENCODING 109
SWIDTH 733 0
DWIDTH 15 0
BBX 15 14 0 0
BITMAP
3870
2448
2498
2A98
7AD8
4D38
4924
4924
6DE4
5EAC
94D4
92D4
9252
739E
ENDCHAR
STARTCHAR n
ENCODING 110
SWIDTH 598 0
DWIDTH 12 0
BBX 10 14 1 0
BITMAP
F1C0
9140
9940
9940
FDC0
9640
9240
9240
F7C0
9940
A4C0
A4C0
94C0
E3C0
ENDCHAR
STARTCHAR o
ENCODING 111
SWIDTH 612 0
DWIDTH 12 0
BBX 12 15 0 -1
BITMAP
3FC0
4220
4220
3FE0
79E0
4920
48A0
48A0
78F0
4890
9FE0
9210
7230
5FE0
2000
ENDCHAR
STARTCHAR p
ENCODING 112
SWIDTH 513 0
DWIDTH 10 0
BBX 10 15 1 0
BITMAP
2000
D800
8600
E580
9840
F680
9580
9900
A600
D400
B800
9000
A000
9000
F000
ENDCHAR
STARTCHAR q
ENCODING 113
SWIDTH 612 0
DWIDTH 12 0
BBX 12 17 0 -3
BITMAP
3FC0
4220
4220
3FE0
79E0
4920
48A0
48A0
78F0
4890
9FE0
9210
7230
5FE0
2900
0900
0700
ENDCHAR
STARTCHAR r
ENCODING 114
SWIDTH 532 0
DWIDTH 11 0
BBX 10 15 1 0
BITMAP
2000
5800
8600
C580
B840
D680
B580
9D80
AA00
9100
FB00
9480
A480
9240
F380
ENDCHAR
STARTCHAR s
ENCODING 115
SWIDTH 442 0
DWIDTH 9 0
BBX 9 14 0 0
BITMAP
5F80
6880
9B80
9400
4800
3400
2400
1200
1600
0900
1900
EC80
8D00
FA00
ENDCHAR
STARTCHAR t
ENCODING 116
SWIDTH 453 0
DWIDTH 9 0
BBX 9 14 0 0
BITMAP
FF80
8880
8A80
F580
1200
1C00
1400
1400
1200
1E00
1400
1400
2200
1C00
ENDCHAR
STARTCHAR u
ENCODING 117
SWIDTH 583 0
DWIDTH 12 0
BBX 11 15 0 -1
BITMAP
39C0
4920
4920
4920
79E0
4920
4920
4920
69E0
5120
5FE0
9420
9460
7FE0
2000
ENDCHAR
STARTCHAR v
ENCODING 118
SWIDTH 506 0
DWIDTH 10 0
BBX 10 14 0 0
BITMAP
6000
93C0
9240
9240
5B40
6A80
4C80
4C80
2780
3C80
2500
2900
2900
3E00
ENDCHAR
STARTCHAR w
ENCODING 119
SWIDTH 735 0
DWIDTH 15 0
BBX 15 14 0 0
BITMAP
601C
9392
9494
92A4
4E74
6DEC
4D24
4928
2FE8
3958
2948
2AC8
3288
3E78
ENDCHAR
STARTCHAR x
ENCODING 120
SWIDTH 483 0
DWIDTH 10 0
BBX 10 13 0 0
BITMAP
F380
9440
4C80
4D00
3B00
1200
1200
3700
4D00
4C80
9440
9240
6380
ENDCHAR
STARTCHAR y
ENCODING 121
SWIDTH 484 0
DWIDTH 10 0
BBX 10 14 0 0
BITMAP
4180
A240
9240
8A80
5680
2580
2900
1900
0E00
1200
1200
2400
2400
1800
ENDCHAR
STARTCHAR z
ENCODING 122
SWIDTH 458 0
DWIDTH 9 0
BBX 9 14 0 0
BITMAP
7F00
4880
4880
7F80
0D00
1200
1200
2400
3400
4C00
4F00
9880
9880
7F00
ENDCHAR
STARTCHAR braceleft
ENCODING 123
SWIDTH 473 0
DWIDTH 9 0
BBX 9 16 0 -1
BITMAP
1B80
2480
2580
1600
1A00
1200
FD00
8500
A600
5A00
1A00
2400
2400
2780
2480
1F80
ENDCHAR
STARTCHAR bar
ENCODING 124
SWIDTH 263 0
DWIDTH 5 0
BBX 4 16 1 -1
BITMAP
F0
90
90
90
90
F0
90
A0
90
D0
B0
A0
A0
90
90
E0
ENDCHAR
STARTCHAR braceright
ENCODING 125
SWIDTH 473 0
DWIDTH 9 0
BBX 10 16 0 -1
BITMAP
FC00
8B00
F200
1A00
1400
2400
2F80
3040
3340
2C80
1600
1A00
1200
6900
8900
FE00
ENDCHAR
STARTCHAR asciitilde
ENCODING 126
SWIDTH 456 0
DWIDTH 9 0
BBX 9 5 0 5
BITMAP
3B00
2A80
5500
AA00
6E00
ENDCHAR
STARTCHAR nonbreakingspace
ENCODING 160
SWIDTH 200 0
DWIDTH 4 0
BBX 1 1 0 0
BITMAP
00
ENDCHAR
STARTCHAR exclamdown
ENCODING 161
SWIDTH 259 0
DWIDTH 5 0
BBX 4 14 1 0
BITMAP
60
A0
90
60
60
90
A0
A0
90
E0
A0
A0
90
F0
ENDCHAR
STARTCHAR cent
ENCODING 162
SWIDTH 480 0
DWIDTH 10 0
BBX 9 19 0 -3
BITMAP
0C00
1200
1200
1380
1C80
6480
C300
6C00
9000
F000
9000
9C00
8B00
7480
1C80
1300
1200
1200
0C00
ENDCHAR
STARTCHAR sterling
ENCODING 163
SWIDTH 594 0
DWIDTH 12 0
BBX 11 14 0 0
BITMAP
0400
0B80
1040
1C40
13C0
5E00
B380
9480
B380
5E00
13E0
1520
2320
1FE0
ENDCHAR
STARTCHAR currency
ENCODING 164
SWIDTH 640 0
DWIDTH 13 0
BBX 11 11 1 2
BITMAP
E4E0
AAA0
9520
74C0
4EA0
8920
9B20
64C0
92A0
AD20
E7E0
ENDCHAR
STARTCHAR yen
ENCODING 165
SWIDTH 575 0
DWIDTH 12 0
BBX 11 13 0 0
BITMAP
71E0
9120
4940
2F40
32C0
1480
3FC0
4240
4240
3F80
1200
1200
0C00
ENDCHAR
STARTCHAR brokenbar
ENCODING 166
SWIDTH 258 0
DWIDTH 5 0
BBX 4 18 1 -2
BITMAP
60
90
A0
E0
90
A0
A0
90
60
00
E0
A0
A0
D0
A0
A0
90
E0
ENDCHAR
STARTCHAR section
ENCODING 167
SWIDTH 474 0
DWIDTH 9 0
BBX 8 14 1 0
BITMAP
FF
89
CB
BC
93
65
99
AA
BE
D1
21
DF
89
FE
ENDCHAR
STARTCHAR dieresis
ENCODING 168
SWIDTH 351 0
DWIDTH 7 0
BBX 7 3 0 15
BITMAP
FE
AA
EE
ENDCHAR
STARTCHAR copyright
ENCODING 169
SWIDTH 719 0
DWIDTH 14 0
BBX 14 15 0 0
BITMAP
3280
4D78
4454
7FF4
5394
745C
57A4
5614
5614
779C
57D4
5014
9FF4
948C
7FF8
ENDCHAR
STARTCHAR ordfeminine
ENCODING 170
SWIDTH 455 0
DWIDTH 9 0
BBX 9 14 0 0
BITMAP
1E00
3200
3200
2900
6900
5F00
7C80
C480
CC80
F380
2200
5D00
4100
7E00
ENDCHAR
STARTCHAR guillemotleft
ENCODING 171
SWIDTH 689 0
DWIDTH 14 0
BBX 13 9 0 3
BITMAP
0810
1428
22C8
C510
9920
E9E0
4598
2248
1C38
ENDCHAR
STARTCHAR logicalnot
ENCODING 172
SWIDTH 591 0
DWIDTH 12 0
BBX 11 7 0 1
BITMAP
FFC0
84A0
9BA0
64A0
00A0
00A0
00E0
ENDCHAR
STARTCHAR uni00AD
ENCODING 173
SWIDTH 465 0
DWIDTH 9 0
BBX 9 4 0 5
BITMAP
7900
8680
8480
7F80
ENDCHAR
STARTCHAR registered
ENCODING 174
SWIDTH 719 0
DWIDTH 14 0
BBX 14 15 0 0
BITMAP
3280
4D78
4454
7FF4
5214
759C
5764
5694
5614
761C
5614
5014
9FF4
948C
7FF8
ENDCHAR
STARTCHAR macron
ENCODING 175
SWIDTH 263 0
DWIDTH 5 0
BBX 5 3 0 15
BITMAP
78
88
F8
ENDCHAR
STARTCHAR degree
ENCODING 176
SWIDTH 333 0
DWIDTH 7 0
BBX 6 5 0 8
BITMAP
7C
54
AC
5C
7C
ENDCHAR
STARTCHAR plusminus
ENCODING 177
SWIDTH 464 0
DWIDTH 9 0
BBX 9 13 0 -2
BITMAP
0C00
1200
5200
AD80
8480
AB80
5400
1400
0C00
7900
8680
8480
7F80
ENDCHAR
STARTCHAR twosuperior
ENCODING 178
SWIDTH 324 0
DWIDTH 6 0
BBX 6 8 0 6
BITMAP
78
84
F4
28
48
9C
54
7C
ENDCHAR
STARTCHAR threesuperior
ENCODING 179
SWIDTH 332 0
DWIDTH 7 0
BBX 6 8 0 6
BITMAP
78
84
BC
34
34
74
94
78
ENDCHAR
STARTCHAR acute
ENCODING 180
SWIDTH 202 0
DWIDTH 4 0
BBX 4 4 0 15
BITMAP
70
50
A0
C0
ENDCHAR
STARTCHAR mu
ENCODING 181
SWIDTH 582 0
DWIDTH 12 0
BBX 10 17 1 -3
BITMAP
6380
9240
9280
9240
93C0
F240
9240
9240
9340
92C0
F7C0
9840
98C0
AF40
9180
9000
6000
ENDCHAR
STARTCHAR paragraph
ENCODING 182
SWIDTH 556 0
DWIDTH 11 0
BBX 10 15 0 0
BITMAP
0100
0EC0
10C0
E8C0
8740
7BC0
CA40
2640
1A40
0A40
07C0
0240
0240
0240
03C0
ENDCHAR
STARTCHAR periodcentered
ENCODING 183
SWIDTH 215 0
DWIDTH 4 0
BBX 3 3 1 6
BITMAP
E0
A0
E0
ENDCHAR
STARTCHAR cedilla
ENCODING 184
SWIDTH 237 0
DWIDTH 5 0
BBX 5 6 0 -4
BITMAP
10
28
28
28
D0
E0
ENDCHAR
STARTCHAR onesuperior
ENCODING 185
SWIDTH 286 0
DWIDTH 6 0
BBX 5 8 0 6
BITMAP
38
48
98
A8
68
28
28
18
ENDCHAR
STARTCHAR ordmasculine
ENCODING 186
SWIDTH 476 0
DWIDTH 10 0
BBX 9 14 0 0
BITMAP
7F00
8480
8780
7C80
5280
5280
9F80
F480
8480
7F80
3000
4F00
4100
3F00
ENDCHAR
STARTCHAR guillemotright
ENCODING 187
SWIDTH 689 0
DWIDTH 14 0
BBX 12 9 1 3
BITMAP
4180
A2C0
9A20
C510
2490
7CF0
8910
9260
E180
ENDCHAR
STARTCHAR onequarter
ENCODING 188
SWIDTH 790 0
DWIDTH 16 0
BBX 15 14 0 0
BITMAP
1880
6540
9940
A540
5740
16C0
268C
1A92
06AE
05CA
0556
0562
053E
0206
ENDCHAR
STARTCHAR onehalf
ENCODING 189
SWIDTH 771 0
DWIDTH 15 0
BBX 15 14 0 0
BITMAP
1880
6540
9940
A540
5740
16C0
26B4
1ACA
06CA
05B6
0524
052C
054A
023E
ENDCHAR
STARTCHAR threequarters
ENCODING 190
SWIDTH 817 0
DWIDTH 16 0
BBX 16 14 0 0
BITMAP
7840
84A0
FCA0
3520
35C0
7540
9544
794A
0355
02A5
02AB
02B1
04AF
0307
ENDCHAR
STARTCHAR questiondown
ENCODING 191
SWIDTH 455 0
DWIDTH 9 0
BBX 9 14 0 0
BITMAP
0F00
0900
0F00
0000
0E00
0900
0D00
3200
4200
FC00
8700
8880
7080
0F00
ENDCHAR
STARTCHAR Agrave
ENCODING 192
SWIDTH 507 0
DWIDTH 10 0
BBX 11 19 0 0
BITMAP
3800
1400
1400
0C00
0000
1C00
2600
2500
2500
3500
4700
4C80
4CC0
7F20
4A20
53C0
9E40
9240
7180
ENDCHAR
STARTCHAR Aacute
ENCODING 193
SWIDTH 507 0
DWIDTH 10 0
BBX 11 19 0 0
BITMAP
0380
0480
0500
0600
0000
1C00
2600
2500
2500
3500
4700
4C80
4CC0
7F20
4A20
53C0
9E40
9240
7180
ENDCHAR
STARTCHAR Acircumflex
ENCODING 194
SWIDTH 507 0
DWIDTH 10 0
BBX 11 20 0 0
BITMAP
0C00
1200
1500
2D00
1300
0000
1C00
2600
2500
2500
3500
4700
4C80
4CC0
7F20
4A20
53C0
9E40
9240
7180
ENDCHAR
STARTCHAR Atilde
ENCODING 195
SWIDTH 507 0
DWIDTH 10 0
BBX 11 19 0 0
BITMAP
1D80
2640
2A80
5900
2700
1C00
2600
2500
2500
3500
4700
4C80
4CC0
7F20
4A20
53C0
9E40
9240
7180
ENDCHAR
STARTCHAR Adieresis
ENCODING 196
SWIDTH 507 0
DWIDTH 10 0
BBX 11 18 0 0
BITMAP
3F80
2C80
3B00
0000
1C00
2600
2500
2500
3500
4700
4C80
4CC0
7F20
4A20
53C0
9E40
9240
7180
ENDCHAR
STARTCHAR Aring
ENCODING 197
SWIDTH 507 0
DWIDTH 10 0
BBX 11 20 0 0
BITMAP
0A00
1500
2500
2C80
3300
1F00
1C00
2600
2500
2500
3500
4700
4C80
4CC0
7F20
4A20
53C0
9E40
9240
7180
ENDCHAR
STARTCHAR AE
ENCODING 198
SWIDTH 797 0
DWIDTH 16 0
BBX 16 14 0 0
BITMAP
03FE
0529
08A9
093E
19E0
173C
2524
2524
7BFC
4920
9F3E
9131
9131
61DE
ENDCHAR
STARTCHAR Ccedilla
ENCODING 199
SWIDTH 515 0
DWIDTH 10 0
BBX 10 18 0 -4
BITMAP
3FC0
4240
4240
3FC0
7800
4800
4800
4800
7800
4800
9FC0
9240
7240
5F80
2500
0D00
1200
1C00
ENDCHAR
STARTCHAR Egrave
ENCODING 200
SWIDTH 490 0
DWIDTH 10 0
BBX 9 19 1 0
BITMAP
3800
2800
1800
1800
0000
FF00
9880
9880
9F00
F000
9C00
A200
9200
FC00
9000
9F00
A880
9880
EF00
ENDCHAR
STARTCHAR Eacute
ENCODING 201
SWIDTH 490 0
DWIDTH 10 0
BBX 9 19 1 0
BITMAP
0E00
0A00
1400
1800
0000
FF00
9880
9880
9F00
F000
9C00
A200
9200
FC00
9000
9F00
A880
9880
EF00
ENDCHAR
STARTCHAR Ecircumflex
ENCODING 202
SWIDTH 490 0
DWIDTH 10 0
BBX 9 20 1 0
BITMAP
1800
2400
2A00
5A00
2600
0000
FF00
9880
9880
9F00
F000
9C00
A200
9200
FC00
9000
9F00
A880
9880
EF00
ENDCHAR
STARTCHAR Edieresis
ENCODING 203
SWIDTH 490 0
DWIDTH 10 0
BBX 9 18 1 0
BITMAP
7F00
5900
7600
0000
FF00
9880
9880
9F00
F000
9C00
A200
9200
FC00
9000
9F00
A880
9880
EF00
ENDCHAR
STARTCHAR Igrave
ENCODING 204
SWIDTH 266 0
DWIDTH 5 0
BBX 5 19 0 0
BITMAP
E0
A0
50
20
00
70
48
48
48
78
48
50
48
78
48
50
50
88
70
ENDCHAR
STARTCHAR Iacute
ENCODING 205
SWIDTH 266 0
DWIDTH 5 0
BBX 5 19 1 0
BITMAP
38
28
50
60
00
E0
90
90
90
F0
90
A0
90
F0
90
A0
A0
90
E0
ENDCHAR
STARTCHAR Icircumflex
ENCODING 206
SWIDTH 266 0
DWIDTH 5 0
BBX 6 20 0 0
BITMAP
70
58
A8
B4
DC
00
70
48
48
48
78
48
50
48
78
48
50
50
88
70
ENDCHAR
STARTCHAR Idieresis
ENCODING 207
SWIDTH 266 0
DWIDTH 5 0
BBX 7 18 -1 0
BITMAP
FE
9A
6E
00
38
24
24
24
3C
24
28
24
3C
24
28
28
44
38
ENDCHAR
STARTCHAR Eth
ENCODING 208
SWIDTH 669 0
DWIDTH 13 0
BBX 14 15 0 0
BITMAP
0300
0C80
0C80
0E60
0920
0F50
FDCC
8624
8538
FFCC
0950
0960
0A40
1180
0F80
ENDCHAR
STARTCHAR Ntilde
ENCODING 209
SWIDTH 598 0
DWIDTH 12 0
BBX 10 20 1 0
BITMAP
1DC0
1540
2A80
5500
3700
0000
F1C0
9140
9940
9940
FDC0
9640
9240
9240
F7C0
9940
A4C0
A4C0
94C0
E3C0
ENDCHAR
STARTCHAR Ograve
ENCODING 210
SWIDTH 612 0
DWIDTH 12 0
BBX 12 20 0 -1
BITMAP
0E00
0A00
0500
0200
0000
3FC0
4220
4220
3FE0
79E0
4920
48A0
48A0
78F0
4890
9FE0
9210
7230
5FE0
2000
ENDCHAR
STARTCHAR Oacute
ENCODING 211
SWIDTH 612 0
DWIDTH 12 0
BBX 12 20 0 -1
BITMAP
01C0
0240
0280
0300
0000
3FC0
4220
4220
3FE0
79E0
4920
48A0
48A0
78F0
4890
9FE0
9210
7230
5FE0
2000
ENDCHAR
STARTCHAR Ocircumflex
ENCODING 212
SWIDTH 612 0
DWIDTH 12 0
BBX 12 21 0 -1
BITMAP
0700
0900
0A80
1640
0D80
0000
3FC0
4220
4220
3FE0
79E0
4920
48A0
48A0
78F0
4890
9FE0
9210
7230
5FE0
2000
ENDCHAR
STARTCHAR Otilde
ENCODING 213
SWIDTH 612 0
DWIDTH 12 0
BBX 12 21 0 -1
BITMAP
0EE0
0BA0
1540
16C0
1B80
0000
3FC0
4220
4220
3FE0
79E0
4920
48A0
48A0
78F0
4890
9FE0
9210
7230
5FE0
2000
ENDCHAR
STARTCHAR Odieresis
ENCODING 214
SWIDTH 612 0
DWIDTH 12 0
BBX 12 19 0 -1
BITMAP
1FC0
1680
1D80
0000
3FC0
4220
4220
3FE0
79E0
4920
48A0
48A0
78F0
4890
9FE0
9210
7230
5FE0
2000
ENDCHAR
STARTCHAR multiply
ENCODING 215
SWIDTH 421 0
DWIDTH 8 0
BBX 7 7 1 3
BITMAP
EC
92
8A
54
A2
92
EC
ENDCHAR
STARTCHAR Oslash
ENCODING 216
SWIDTH 612 0
DWIDTH 12 0
BBX 12 15 0 -1
BITMAP
3FC0
42A0
4320
3E20
7A60
4DA0
4CA0
4920
6970
5690
93E0
A610
4A30
4FE0
3000
ENDCHAR
STARTCHAR Ugrave
ENCODING 217
SWIDTH 583 0
DWIDTH 12 0
BBX 11 19 0 -1
BITMAP
1C00
0A00
0A00
0600
39C0
4920
4920
4920
79E0
4920
4920
4920
69E0
5120
5FE0
9420
9460
7FE0
2000
ENDCHAR
STARTCHAR Uacute
ENCODING 218
SWIDTH 583 0
DWIDTH 12 0
BBX 11 20 0 -1
BITMAP
0380
0280
0500
0600
0000
39C0
4920
4920
4920
79E0
4920
4920
4920
69E0
5120
5FE0
9420
9460
7FE0
2000
ENDCHAR
STARTCHAR Ucircumflex
ENCODING 219
SWIDTH 583 0
DWIDTH 12 0
BBX 11 21 0 -1
BITMAP
0E00
0A00
1500
2680
1B80
0000
39C0
4920
4920
4920
79E0
4920
4920
4920
69E0
5120
5FE0
9420
9460
7FE0
2000
ENDCHAR
STARTCHAR Udieresis
ENCODING 220
SWIDTH 583 0
DWIDTH 12 0
BBX 11 19 0 -1
BITMAP
3F80
2680
1B80
0000
39C0
4920
4920
4920
79E0
4920
4920
4920
69E0
5120
5FE0
9420
9460
7FE0
2000
ENDCHAR
STARTCHAR Yacute
ENCODING 221
SWIDTH 484 0
DWIDTH 10 0
BBX 10 18 0 0
BITMAP
0700
0500
0A00
0C00
4180
A240
9240
8A80
5680
2580
2900
1900
0E00
1200
1200
2400
2400
1800
ENDCHAR
STARTCHAR Thorn
ENCODING 222
SWIDTH 520 0
DWIDTH 10 0
BBX 10 14 1 0
BITMAP
E000
B000
D800
8600
C580
B840
A680
A580
D980
B600
A400
A800
9000
F000
ENDCHAR
STARTCHAR germandbls
ENCODING 223
SWIDTH 884 0
DWIDTH 18 0
BBX 18 14 0 0
BITMAP
5FAF80
68B440
9BCFC0
944800
482400
342A00
241200
120900
160B00
090480
191C80
ECEA40
8D4680
FA7D00
ENDCHAR
STARTCHAR agrave
ENCODING 224
SWIDTH 507 0
DWIDTH 10 0
BBX 11 19 0 0
BITMAP
3800
1400
1400
0C00
0000
1C00
2600
2500
2500
3500
4700
4C80
4CC0
7F20
4A20
53C0
9E40
9240
7180
ENDCHAR
STARTCHAR aacute
ENCODING 225
SWIDTH 507 0
DWIDTH 10 0
BBX 11 19 0 0
BITMAP
0380
0480
0500
0600
0000
1C00
2600
2500
2500
3500
4700
4C80
4CC0
7F20
4A20
53C0
9E40
9240
7180
ENDCHAR
STARTCHAR acircumflex
ENCODING 226
SWIDTH 507 0
DWIDTH 10 0
BBX 11 20 0 0
BITMAP
0C00
1200
1500
2D00
1300
0000
1C00
2600
2500
2500
3500
4700
4C80
4CC0
7F20
4A20
53C0
9E40
9240
7180
ENDCHAR
STARTCHAR atilde
ENCODING 227
SWIDTH 507 0
DWIDTH 10 0
BBX 11 19 0 0
BITMAP
1D80
2640
2A80
5900
2700
1C00
2600
2500
2500
3500
4700
4C80
4CC0
7F20
4A20
53C0
9E40
9240
7180
ENDCHAR
STARTCHAR adieresis
ENCODING 228
SWIDTH 507 0
DWIDTH 10 0
BBX 11 18 0 0
BITMAP
3F80
2C80
3B00
0000
1C00
2600
2500
2500
3500
4700
4C80
4CC0
7F20
4A20
53C0
9E40
9240
7180
ENDCHAR
STARTCHAR aring
ENCODING 229
SWIDTH 507 0
DWIDTH 10 0
BBX 11 20 0 0
BITMAP
0A00
1500
2500
2C80
3300
1F00
1C00
2600
2500
2500
3500
4700
4C80
4CC0
7F20
4A20
53C0
9E40
9240
7180
ENDCHAR
STARTCHAR ae
ENCODING 230
SWIDTH 797 0
DWIDTH 16 0
BBX 16 14 0 0
BITMAP
03FE
0529
08A9
093E
19E0
173C
2524
2524
7BFC
4920
9F3E
9131
9131
61DE
ENDCHAR
STARTCHAR ccedilla
ENCODING 231
SWIDTH 515 0
DWIDTH 10 0
BBX 10 18 0 -4
BITMAP
3FC0
4240
4240
3FC0
7800
4800
4800
4800
7800
4800
9FC0
9240
7240
5F80
2500
0D00
1200
1C00
ENDCHAR
STARTCHAR egrave
ENCODING 232
SWIDTH 490 0
DWIDTH 10 0
BBX 9 19 1 0
BITMAP
3800
2800
1800
1800
0000
FF00
9880
9880
9F00
F000
9C00
A200
9200
FC00
9000
9F00
A880
9880
EF00
ENDCHAR
STARTCHAR eacute
ENCODING 233
SWIDTH 490 0
DWIDTH 10 0
BBX 9 19 1 0
BITMAP
0E00
0A00
1400
1800
0000
FF00
9880
9880
9F00
F000
9C00
A200
9200
FC00
9000
9F00
A880
9880
EF00
ENDCHAR
STARTCHAR ecircumflex
ENCODING 234
SWIDTH 490 0
DWIDTH 10 0
BBX 9 20 1 0
BITMAP
1800
2400
2A00
5A00
2600
0000
FF00
9880
9880
9F00
F000
9C00
A200
9200
FC00
9000
9F00
A880
9880
EF00
ENDCHAR
STARTCHAR edieresis
ENCODING 235
SWIDTH 490 0
DWIDTH 10 0
BBX 9 18 1 0
BITMAP
7F00
5900
7600
0000
FF00
9880
9880
9F00
F000
9C00
A200
9200
FC00
9000
9F00
A880
9880
EF00
ENDCHAR
STARTCHAR igrave
ENCODING 236
SWIDTH 266 0
DWIDTH 5 0
BBX 5 19 0 0
BITMAP
E0
A0
50
20
00
70
48
48
48
78
48
50
48
78
48
50
50
88
70
ENDCHAR
STARTCHAR iacute
ENCODING 237
SWIDTH 266 0
DWIDTH 5 0
BBX 5 19 1 0
BITMAP
38
28
50
60
00
E0
90
90
90
F0
90
A0
90
F0
90
A0
A0
90
E0
ENDCHAR
STARTCHAR icircumflex
ENCODING 238
SWIDTH 266 0
DWIDTH 5 0
BBX 6 20 0 0
BITMAP
70
58
A8
B4
DC
00
70
48
48
48
78
48
50
48
78
48
50
50
88
70
ENDCHAR
STARTCHAR idieresis
ENCODING 239
SWIDTH 266 0
DWIDTH 5 0
BBX 7 18 -1 0
BITMAP
FE
9A
6E
00
38
24
24
24
3C
24
28
24
3C
24
28
28
44
38
ENDCHAR
STARTCHAR eth
ENCODING 240
SWIDTH 669 0
DWIDTH 13 0
BBX 14 15 0 0
BITMAP
0300
0C80
0C80
0E60
0920
0F50
FDCC
8624
8538
FFCC
0950
0960
0A40
1180
0F80
ENDCHAR
STARTCHAR ntilde
ENCODING 241
SWIDTH 598 0
DWIDTH 12 0
BBX 10 20 1 0
BITMAP
1DC0
1540
2A80
5500
3700
0000
F1C0
9140
9940
9940
FDC0
9640
9240
9240
F7C0
9940
A4C0
A4C0
94C0
E3C0
ENDCHAR
STARTCHAR ograve
ENCODING 242
SWIDTH 612 0
DWIDTH 12 0
BBX 12 20 0 -1
BITMAP
0E00
0A00
0500
0200
0000
3FC0
4220
4220
3FE0
79E0
4920
48A0
48A0
78F0
4890
9FE0
9210
7230
5FE0
2000
ENDCHAR
STARTCHAR oacute
ENCODING 243
SWIDTH 612 0
DWIDTH 12 0
BBX 12 20 0 -1
BITMAP
01C0
0240
0280
0300
0000
3FC0
4220
4220
3FE0
79E0
4920
48A0
48A0
78F0
4890
9FE0
9210
7230
5FE0
2000
ENDCHAR
STARTCHAR ocircumflex
ENCODING 244
SWIDTH 612 0
DWIDTH 12 0
BBX 12 21 0 -1
BITMAP
0700
0900
0A80
1640
0D80
0000
3FC0
4220
4220
3FE0
79E0
4920
48A0
48A0
78F0
4890
9FE0
9210
7230
5FE0
2000
ENDCHAR
STARTCHAR otilde
ENCODING 245
SWIDTH 612 0
DWIDTH 12 0
BBX 12 21 0 -1
BITMAP
0EE0
0BA0
1540
16C0
1B80
0000
3FC0
4220
4220
3FE0
79E0
4920
48A0
48A0
78F0
4890
9FE0
9210
7230
5FE0
2000
ENDCHAR
STARTCHAR odieresis
ENCODING 246
SWIDTH 612 0
DWIDTH 12 0
BBX 12 19 0 -1
BITMAP
1FC0
1680
1D80
0000
3FC0
4220
4220
3FE0
79E0
4920
48A0
48A0
78F0
4890
9FE0
9210
7230
5FE0
2000
ENDCHAR
STARTCHAR divide
ENCODING 247
SWIDTH 457 0
DWIDTH 9 0
BBX 9 11 0 1
BITMAP
1C00
1400
1400
7D00
8A80
8480
B780
4800
1400
1400
1C00
ENDCHAR
STARTCHAR oslash
ENCODING 248
SWIDTH 612 0
DWIDTH 12 0
BBX 12 15 0 -1
BITMAP
3FC0
42A0
4320
3E20
7A60
4DA0
4CA0
4920
6970
5690
93E0
A610
4A30
4FE0
3000
ENDCHAR
STARTCHAR ugrave
ENCODING 249
SWIDTH 583 0
DWIDTH 12 0
BBX 11 19 0 -1
BITMAP
1C00
0A00
0A00
0600
39C0
4920
4920
4920
79E0
4920
4920
4920
69E0
5120
5FE0
9420
9460
7FE0
2000
ENDCHAR
STARTCHAR uacute
ENCODING 250
SWIDTH 583 0
DWIDTH 12 0
BBX 11 20 0 -1
BITMAP
0380
0280
0500
0600
0000
39C0
4920
4920
4920
79E0
4920
4920
4920
69E0
5120
5FE0
9420
9460
7FE0
2000
ENDCHAR
STARTCHAR ucircumflex
ENCODING 251
SWIDTH 583 0
DWIDTH 12 0
BBX 11 21 0 -1
BITMAP
0E00
0A00
1500
2680
1B80
0000
39C0
4920
4920
4920
79E0
4920
4920
4920
69E0
5120
5FE0
9420
9460
7FE0
2000
ENDCHAR
STARTCHAR udieresis
ENCODING 252
SWIDTH 583 0
DWIDTH 12 0
BBX 11 19 0 -1
BITMAP
3F80
2680
1B80
0000
39C0
4920
4920
4920
79E0
4920
4920
4920
69E0
5120
5FE0
9420
9460
7FE0
2000
ENDCHAR
STARTCHAR yacute
ENCODING 253
SWIDTH 484 0
DWIDTH 10 0
BBX 10 18 0 0
BITMAP
0700
0500
0A00
0C00
4180
A240
9240
8A80
5680
2580
2900
1900
0E00
1200
1200
2400
2400
1800
ENDCHAR
STARTCHAR thorn
ENCODING 254
SWIDTH 520 0
DWIDTH 10 0
BBX 10 14 1 0
BITMAP
E000
B000
D800
8600
C580
B840
A680
A580
D980
B600
A400
A800
9000
F000
ENDCHAR
STARTCHAR ydieresis
ENCODING 255
SWIDTH 484 0
DWIDTH 10 0
BBX 10 17 0 0
BITMAP
7F00
4D00
3700
4180
A240
9240
8A80
5680
2580
2900
1900
0E00
1200
1200
2400
2400
1800
ENDCHAR
STARTCHAR Amacron
ENCODING 256
SWIDTH 507 0
DWIDTH 10 0
BBX 11 17 0 0
BITMAP
1E00
2100
1E00
1C00
2600
2500
2500
3500
4700
4C80
4CC0
7F20
4A20
53C0
9E40
9240
7180
ENDCHAR
STARTCHAR amacron
ENCODING 257
SWIDTH 507 0
DWIDTH 10 0
BBX 11 17 0 0
BITMAP
1E00
2100
1E00
1C00
2600
2500
2500
3500
4700
4C80
4CC0
7F20
4A20
53C0
9E40
9240
7180
ENDCHAR
STARTCHAR Abreve
ENCODING 258
SWIDTH 507 0
DWIDTH 10 0
BBX 11 19 0 0
BITMAP
3300
2A80
2F00
2900
1E00
1C00
2600
2500
2500
3500
4700
4C80
4CC0
7F20
4A20
53C0
9E40
9240
7180
ENDCHAR
STARTCHAR abreve
ENCODING 259
SWIDTH 507 0
DWIDTH 10 0
BBX 11 19 0 0
BITMAP
3300
2A80
2F00
2900
1E00
1C00
2600
2500
2500
3500
4700
4C80
4CC0
7F20
4A20
53C0
9E40
9240
7180
ENDCHAR
STARTCHAR Aogonek
ENCODING 260
SWIDTH 507 0
DWIDTH 10 0
BBX 11 18 0 -4
BITMAP
1C00
2600
2500
2500
3500
4700
4C80
4CC0
7F20
4A20
53C0
9E40
9240
71C0
0280
02C0
0120
00E0
ENDCHAR
STARTCHAR aogonek
ENCODING 261
SWIDTH 507 0
DWIDTH 10 0
BBX 11 18 0 -4
BITMAP
1C00
2600
2500
2500
3500
4700
4C80
4CC0
7F20
4A20
53C0
9E40
9240
71C0
0280
02C0
0120
00E0
ENDCHAR
STARTCHAR Cacute
ENCODING 262
SWIDTH 515 0
DWIDTH 10 0
BBX 10 20 0 -1
BITMAP
0380
0280
0500
0600
0000
3FC0
4240
4240
3FC0
7800
4800
4800
4800
7800
4800
9FC0
9240
7240
5F80
2000
ENDCHAR
STARTCHAR cacute
ENCODING 263
SWIDTH 515 0
DWIDTH 10 0
BBX 10 20 0 -1
BITMAP
0380
0280
0500
0600
0000
3FC0
4240
4240
3FC0
7800
4800
4800
4800
7800
4800
9FC0
9240
7240
5F80
2000
ENDCHAR
STARTCHAR Ccircumflex
ENCODING 264
SWIDTH 515 0
DWIDTH 10 0
BBX 10 20 0 -1
BITMAP
0700
0900
0A80
1640
0980
3FC0
4240
4240
3FC0
7800
4800
4800
4800
7800
4800
9FC0
9240
7240
5F80
2000
ENDCHAR
STARTCHAR ccircumflex
ENCODING 265
SWIDTH 515 0
DWIDTH 10 0
BBX 10 20 0 -1
BITMAP
0700
0900
0A80
1640
0980
3FC0
4240
4240
3FC0
7800
4800
4800
4800
7800
4800
9FC0
9240
7240
5F80
2000
ENDCHAR
STARTCHAR Cdotaccent
ENCODING 266
SWIDTH 515 0
DWIDTH 10 0
BBX 10 19 0 -1
BITMAP
0F00
0500
0700
0000
3FC0
4240
4240
3FC0
7800
4800
4800
4800
7800
4800
9FC0
9240
7240
5F80
2000
ENDCHAR
STARTCHAR cdotaccent
ENCODING 267
SWIDTH 515 0
DWIDTH 10 0
BBX 10 19 0 -1
BITMAP
0F00
0500
0700
0000
3FC0
4240
4240
3FC0
7800
4800
4800
4800
7800
4800
9FC0
9240
7240
5F80
2000
ENDCHAR
STARTCHAR Ccaron
ENCODING 268
SWIDTH 515 0
DWIDTH 10 0
BBX 10 20 0 -1
BITMAP
1D80
1680
0A80
0900
0600
3FC0
4240
4240
3FC0
7800
4800
4800
4800
7800
4800
9FC0
9240
7240
5F80
2000
ENDCHAR
STARTCHAR ccaron
ENCODING 269
SWIDTH 515 0
DWIDTH 10 0
BBX 10 20 0 -1
BITMAP
1D80
1680
0A80
0900
0600
3FC0
4240
4240
3FC0
7800
4800
4800
4800
7800
4800
9FC0
9240
7240
5F80
2000
ENDCHAR
STARTCHAR Dcaron
ENCODING 270
SWIDTH 520 0
DWIDTH 10 0
BBX 10 20 1 0
BITMAP
7600
5A00
2A00
2400
1800
3000
C800
C800
E600
9200
F500
9CC0
A240
9380
FCC0
9500
9200
A400
9800
F800
ENDCHAR
STARTCHAR dcaron
ENCODING 271
SWIDTH 520 0
DWIDTH 10 0
BBX 10 20 1 0
BITMAP
7600
5A00
2A00
2400
1800
3000
C800
C800
E600
9200
F500
9CC0
A240
9380
FCC0
9500
9200
A400
9800
F800
ENDCHAR
STARTCHAR Dcroat
ENCODING 272
SWIDTH 669 0
DWIDTH 13 0
BBX 14 15 0 0
BITMAP
0300
0C80
0C80
0E60
0920
0F50
FDCC
8624
8538
FFCC
0950
0960
0A40
1180
0F80
ENDCHAR
STARTCHAR dcroat
ENCODING 273
SWIDTH 669 0
DWIDTH 13 0
BBX 14 15 0 0
BITMAP
0300
0C80
0C80
0E60
0920
0F50
FDCC
8624
8538
FFCC
0950
0960
0A40
1180
0F80
ENDCHAR
STARTCHAR Emacron
ENCODING 274
SWIDTH 490 0
DWIDTH 10 0
BBX 9 18 1 0
BITMAP
3C00
4200
3C00
0000
FF00
9880
9880
9F00
F000
9C00
A200
9200
FC00
9000
9F00
A880
9880
EF00
ENDCHAR
STARTCHAR emacron
ENCODING 275
SWIDTH 490 0
DWIDTH 10 0
BBX 9 18 1 0
BITMAP
3C00
4200
3C00
0000
FF00
9880
9880
9F00
F000
9C00
A200
9200
FC00
9000
9F00
A880
9880
EF00
ENDCHAR
STARTCHAR Ebreve
ENCODING 276
SWIDTH 490 0
DWIDTH 10 0
BBX 9 20 1 0
BITMAP
2600
5500
5E00
5200
3C00
0000
FF00
9880
9880
9F00
F000
9C00
A200
9200
FC00
9000
9F00
A880
9880
EF00
ENDCHAR
STARTCHAR ebreve
ENCODING 277
SWIDTH 490 0
DWIDTH 10 0
BBX 9 20 1 0
BITMAP
2600
5500
5E00
5200
3C00
0000
FF00
9880
9880
9F00
F000
9C00
A200
9200
FC00
9000
9F00
A880
9880
EF00
ENDCHAR
STARTCHAR Edotaccent
ENCODING 278
SWIDTH 490 0
DWIDTH 10 0
BBX 9 18 1 0
BITMAP
3C00
2400
3800
0000
FF00
9880
9880
9F00
F000
9C00
A200
9200
FC00
9000
9F00
A880
9880
EF00
ENDCHAR
STARTCHAR edotaccent
ENCODING 279
SWIDTH 490 0
DWIDTH 10 0
BBX 9 18 1 0
BITMAP
3C00
2400
3800
0000
FF00
9880
9880
9F00
F000
9C00
A200
9200
FC00
9000
9F00
A880
9880
EF00
ENDCHAR
STARTCHAR Eogonek
ENCODING 280
SWIDTH 490 0
DWIDTH 10 0
BBX 9 18 1 -4
BITMAP
FF00
9880
9880
9F00
F000
9C00
A200
9200
FC00
9000
9F00
A880
9880
EF00
0A00
0B00
0480
0300
ENDCHAR
STARTCHAR eogonek
ENCODING 281
SWIDTH 490 0
DWIDTH 10 0
BBX 9 18 1 -4
BITMAP
FF00
9880
9880
9F00
F000
9C00
A200
9200
FC00
9000
9F00
A880
9880
EF00
0A00
0B00
0480
0300
ENDCHAR
STARTCHAR Ecaron
ENCODING 282
SWIDTH 490 0
DWIDTH 10 0
BBX 9 19 1 0
BITMAP
7600
5900
2A00
2400
1800
FF00
9880
9880
9F00
F000
9C00
A200
9200
FC00
9000
9F00
A880
9880
EF00
ENDCHAR
STARTCHAR ecaron
ENCODING 283
SWIDTH 490 0
DWIDTH 10 0
BBX 9 19 1 0
BITMAP
7600
5900
2A00
2400
1800
FF00
9880
9880
9F00
F000
9C00
A200
9200
FC00
9000
9F00
A880
9880
EF00
ENDCHAR
STARTCHAR Gcircumflex
ENCODING 284
SWIDTH 557 0
DWIDTH 11 0
BBX 11 20 0 -1
BITMAP
0600
0900
1280
1680
1980
3FC0
4240
4240
3FC0
7800
4800
49E0
4920
7920
49E0
9F20
9320
7320
5FC0
2000
ENDCHAR
STARTCHAR gcircumflex
ENCODING 285
SWIDTH 557 0
DWIDTH 11 0
BBX 11 20 0 -1
BITMAP
0600
0900
1280
1680
1980
3FC0
4240
4240
3FC0
7800
4800
49E0
4920
7920
49E0
9F20
9320
7320
5FC0
2000
ENDCHAR
STARTCHAR Gbreve
ENCODING 286
SWIDTH 557 0
DWIDTH 11 0
BBX 11 20 0 -1
BITMAP
1980
1A80
1780
1480
0F00
3FC0
4240
4240
3FC0
7800
4800
49E0
4920
7920
49E0
9F20
9320
7320
5FC0
2000
ENDCHAR
STARTCHAR gbreve
ENCODING 287
SWIDTH 557 0
DWIDTH 11 0
BBX 11 20 0 -1
BITMAP
1980
1A80
1780
1480
0F00
3FC0
4240
4240
3FC0
7800
4800
49E0
4920
7920
49E0
9F20
9320
7320
5FC0
2000
ENDCHAR
STARTCHAR Gdotaccent
ENCODING 288
SWIDTH 557 0
DWIDTH 11 0
BBX 11 19 0 -1
BITMAP
0F00
0500
0700
0000
3FC0
4240
4240
3FC0
7800
4800
49E0
4920
7920
49E0
9F20
9320
7320
5FC0
2000
ENDCHAR
STARTCHAR gdotaccent
ENCODING 289
SWIDTH 557 0
DWIDTH 11 0
BBX 11 19 0 -1
BITMAP
0F00
0500
0700
0000
3FC0
4240
4240
3FC0
7800
4800
49E0
4920
7920
49E0
9F20
9320
7320
5FC0
2000
ENDCHAR
STARTCHAR Gcommaaccent
ENCODING 290
SWIDTH 557 0
DWIDTH 11 0
BBX 11 19 0 -5
BITMAP
3FC0
4240
4240
3FC0
7800
4800
49E0
4920
7920
49E0
9F20
9320
7320
5FC0
2400
0A00
0A00
1400
1800
ENDCHAR
STARTCHAR gcommaaccent
ENCODING 291
SWIDTH 557 0
DWIDTH 11 0
BBX 11 19 0 -5
BITMAP
3FC0
4240
4240
3FC0
7800
4800
49E0
4920
7920
49E0
9F20
9320
7320
5FC0
2400
0A00
0A00
1400
1800
ENDCHAR
STARTCHAR Hcircumflex
ENCODING 292
SWIDTH 611 0
DWIDTH 12 0
BBX 11 20 1 0
BITMAP
0C00
1200
2500
2D00
3300
0000
E3C0
9240
9240
9240
F3C0
9240
9240
93A0
FD20
99E0
AF40
B240
9240
E3C0
ENDCHAR
STARTCHAR hcircumflex
ENCODING 293
SWIDTH 611 0
DWIDTH 12 0
BBX 11 20 1 0
BITMAP
0C00
1200
2500
2D00
3300
0000
E3C0
9240
9240
9240
F3C0
9240
9240
93A0
FD20
99E0
AF40
B240
9240
E3C0
ENDCHAR
STARTCHAR Hbar
ENCODING 294
SWIDTH 706 0
DWIDTH 14 0
BBX 13 14 1 0
BITMAP
78E0
4920
CFF0
C888
F888
CFF8
4930
48C8
7F88
4CF0
4FA0
4920
4920
70E0
ENDCHAR
STARTCHAR hbar
ENCODING 295
SWIDTH 706 0
DWIDTH 14 0
BBX 13 14 1 0
BITMAP
78E0
4920
CFF0
C888
F888
CFF8
4930
48C8
7F88
4CF0
4FA0
4920
4920
70E0
ENDCHAR
STARTCHAR Itilde
ENCODING 296
SWIDTH 266 0
DWIDTH 5 0
BBX 8 20 -1 0
BITMAP
33
4D
95
B2
CC
00
38
24
24
24
3C
24
28
24
3C
24
28
28
44
38
ENDCHAR
STARTCHAR itilde
ENCODING 297
SWIDTH 266 0
DWIDTH 5 0
BBX 8 20 -1 0
BITMAP
33
4D
95
B2
CC
00
38
24
24
24
3C
24
28
24
3C
24
28
28
44
38
ENDCHAR
STARTCHAR Imacron
ENCODING 298
SWIDTH 266 0
DWIDTH 5 0
BBX 5 18 0 0
BITMAP
78
88
F8
00
70
48
48
48
78
48
50
48
78
48
50
50
88
70
ENDCHAR
STARTCHAR imacron
ENCODING 299
SWIDTH 266 0
DWIDTH 5 0
BBX 5 18 0 0
BITMAP
78
88
F8
00
70
48
48
48
78
48
50
48
78
48
50
50
88
70
ENDCHAR
STARTCHAR Ibreve
ENCODING 300
SWIDTH 266 0
DWIDTH 5 0
BBX 6 20 0 0
BITMAP
CC
D4
BC
A4
78
00
70
48
48
48
78
48
50
48
78
48
50
50
88
70
ENDCHAR
STARTCHAR ibreve
ENCODING 301
SWIDTH 266 0
DWIDTH 5 0
BBX 6 20 0 0
BITMAP
CC
D4
BC
A4
78
00
70
48
48
48
78
48
50
48
78
48
50
50
88
70
ENDCHAR
STARTCHAR Iogonek
ENCODING 302
SWIDTH 266 0
DWIDTH 5 0
BBX 5 19 0 -5
BITMAP
70
48
48
48
78
48
50
48
78
48
50
50
88
70
50
A0
50
28
10
ENDCHAR
STARTCHAR iogonek
ENCODING 303
SWIDTH 266 0
DWIDTH 5 0
BBX 5 19 0 -5
BITMAP
70
48
48
48
78
48
50
48
78
48
50
50
88
70
50
A0
50
28
10
ENDCHAR
STARTCHAR Idotaccent
ENCODING 304
SWIDTH 266 0
DWIDTH 5 0
BBX 4 18 1 0
BITMAP
E0
A0
E0
00
E0
90
90
90
F0
90
A0
90
F0
90
A0
A0
90
E0
ENDCHAR
STARTCHAR dotlessi
ENCODING 305
SWIDTH 266 0
DWIDTH 5 0
BBX 4 14 1 0
BITMAP
E0
90
90
90
F0
90
A0
90
F0
90
A0
A0
90
E0
ENDCHAR
STARTCHAR IJ
ENCODING 306
SWIDTH 750 0
DWIDTH 15 0
BBX 13 15 1 -1
BITMAP
E038
9028
9028
9028
F038
9048
A028
9628
F978
98C8
A548
A228
9118
E0B8
00C0
ENDCHAR
STARTCHAR ij
ENCODING 307
SWIDTH 749 0
DWIDTH 15 0
BBX 13 15 1 -1
BITMAP
E038
9028
9028
9028
F038
9048
A028
9628
F978
98C8
A548
A228
9118
E0B8
00C0
ENDCHAR
STARTCHAR Jcircumflex
ENCODING 308
SWIDTH 484 0
DWIDTH 10 0
BBX 10 20 0 -1
BITMAP
0300
0480
0940
0B40
04C0
0380
0480
0480
0480
0780
0480
0480
E480
9780
8C80
5480
2480
1280
1380
0C00
ENDCHAR
STARTCHAR jcircumflex
ENCODING 309
SWIDTH 482 0
DWIDTH 10 0
BBX 10 20 0 -1
BITMAP
0300
0480
0940
0B40
04C0
0380
0480
0480
0480
0780
0480
0480
E480
9780
8C80
5480
2480
1280
1380
0C00
ENDCHAR
STARTCHAR Kcommaaccent
ENCODING 310
SWIDTH 541 0
DWIDTH 11 0
BBX 10 19 1 -5
BITMAP
E180
9240
9240
9480
FB00
9100
A200
9600
F900
9F00
9880
A480
9440
E380
0800
1400
1400
2800
3000
ENDCHAR
STARTCHAR kcommaaccent
ENCODING 311
SWIDTH 541 0
DWIDTH 11 0
BBX 10 19 1 -5
BITMAP
E180
9240
9240
9480
FB00
9100
A200
9600
F900
9F00
9880
A480
9440
E380
0800
1400
1400
2800
3000
ENDCHAR
STARTCHAR kgreenlandic
ENCODING 312
SWIDTH 541 0
DWIDTH 11 0
BBX 10 14 1 0
BITMAP
E180
9240
9240
9480
FB00
9100
A200
9600
F900
9F00
9880
A480
9440
E380
ENDCHAR
STARTCHAR Lacute
ENCODING 313
SWIDTH 467 0
DWIDTH 9 0
BBX 9 19 1 0
BITMAP
1C00
2800
2800
3000
0000
E000
9000
9000
9000
F000
9000
A000
9000
F000
9000
9F00
A880
9080
FF00
ENDCHAR
STARTCHAR lacute
ENCODING 314
SWIDTH 467 0
DWIDTH 9 0
BBX 9 19 1 0
BITMAP
1C00
2800
2800
3000
0000
E000
9000
9000
9000
F000
9000
A000
9000
F000
9000
9F00
A880
9080
FF00
ENDCHAR
STARTCHAR Lcommaaccent
ENCODING 315
SWIDTH 467 0
DWIDTH 9 0
BBX 9 19 1 -5
BITMAP
E000
9000
9000
9000
F000
9000
A000
9000
F000
9000
9F00
A880
9080
FF00
1000
2800
2800
5000
6000
ENDCHAR
STARTCHAR lcommaaccent
ENCODING 316
SWIDTH 467 0
DWIDTH 9 0
BBX 9 19 1 -5
BITMAP
E000
9000
9000
9000
F000
9000
A000
9000
F000
9000
9F00
A880
9080
FF00
1000
2800
2800
5000
6000
ENDCHAR
STARTCHAR Lcaron
ENCODING 317
SWIDTH 467 0
DWIDTH 9 0
BBX 9 15 1 0
BITMAP
0300
E500
9A00
9A00
9400
F000
9000
A000
9000
F000
9000
9F00
A880
9080
FF00
ENDCHAR
STARTCHAR lcaron
ENCODING 318
SWIDTH 467 0
DWIDTH 9 0
BBX 9 15 1 0
BITMAP
0300
E500
9A00
9A00
9400
F000
9000
A000
9000
F000
9000
9F00
A880
9080
FF00
ENDCHAR
STARTCHAR Ldot
ENCODING 319
SWIDTH 611 0
DWIDTH 12 0
BBX 11 14 1 0
BITMAP
E000
9000
9000
9000
F000
90C0
A120
9120
F0C0
9000
9F00
A880
9080
FF00
ENDCHAR
STARTCHAR ldotaccent
ENCODING 320
SWIDTH 611 0
DWIDTH 12 0
BBX 11 14 1 0
BITMAP
E000
9000
9000
9000
F000
90C0
A120
9120
F0C0
9000
9F00
A880
9080
FF00
ENDCHAR
STARTCHAR Lslash
ENCODING 321
SWIDTH 505 0
DWIDTH 10 0
BBX 10 14 0 0
BITMAP
3800
2400
2800
2800
3400
4600
A900
AE00
F800
4800
27C0
4A40
4A40
3FC0
ENDCHAR
STARTCHAR lslash
ENCODING 322
SWIDTH 505 0
DWIDTH 10 0
BBX 10 14 0 0
BITMAP
3800
2400
2800
2800
3400
4600
A900
AE00
F800
4800
27C0
4A40
4A40
3FC0
ENDCHAR
STARTCHAR Nacute
ENCODING 323
SWIDTH 598 0
DWIDTH 12 0
BBX 10 18 1 0
BITMAP
0300
0500
0A00
0E00
F1C0
9140
9940
9940
FDC0
9640
9240
9240
F7C0
9940
A4C0
A4C0
94C0
E3C0
ENDCHAR
STARTCHAR nacute
ENCODING 324
SWIDTH 598 0
DWIDTH 12 0
BBX 10 18 1 0
BITMAP
0300
0500
0A00
0E00
F1C0
9140
9940
9940
FDC0
9640
9240
9240
F7C0
9940
A4C0
A4C0
94C0
E3C0
ENDCHAR
STARTCHAR Ncommaaccent
ENCODING 325
SWIDTH 598 0
DWIDTH 12 0
BBX 10 19 1 -5
BITMAP
F1C0
9140
9940
9940
FDC0
9640
9240
9240
F7C0
9940
A4C0
A4C0
94C0
E3C0
0000
0C00
1400
2800
3800
ENDCHAR
STARTCHAR ncommaaccent
ENCODING 326
SWIDTH 598 0
DWIDTH 12 0
BBX 10 19 1 -5
BITMAP
F1C0
9140
9940
9940
FDC0
9640
9240
9240
F7C0
9940
A4C0
A4C0
94C0
E3C0
0000
0C00
1400
2800
3800
ENDCHAR
STARTCHAR Ncaron
ENCODING 327
SWIDTH 598 0
DWIDTH 12 0
BBX 10 19 1 0
BITMAP
3B00
2500
1500
1200
0C00
F1C0
9140
9940
9940
FDC0
9640
9240
9240
F7C0
9940
A4C0
A4C0
94C0
E3C0
ENDCHAR
STARTCHAR ncaron
ENCODING 328
SWIDTH 598 0
DWIDTH 12 0
BBX 10 19 1 0
BITMAP
3B00
2500
1500
1200
0C00
F1C0
9140
9940
9940
FDC0
9640
9240
9240
F7C0
9940
A4C0
A4C0
94C0
E3C0
ENDCHAR
STARTCHAR napostrophe
ENCODING 329
SWIDTH 807 0
DWIDTH 16 0
BBX 16 14 0 0
BITMAP
378E
54C9
A4CA
A4AA
47ED
04AA
0492
048A
07FD
04CA
04A6
04A6
04A6
071E
ENDCHAR
STARTCHAR Eng
ENCODING 330
SWIDTH 595 0
DWIDTH 12 0
BBX 10 19 1 -5
BITMAP
F180
9240
9940
9940
FE40
95C0
9240
9240
F740
9940
A4C0
A4C0
94C0
E340
03C0
7CC0
4480
4380
7C00
ENDCHAR
STARTCHAR eng
ENCODING 331
SWIDTH 595 0
DWIDTH 12 0
BBX 10 19 1 -5
BITMAP
F180
9240
9940
9940
FE40
95C0
9240
9240
F740
9940
A4C0
A4C0
94C0
E340
03C0
7CC0
4480
4380
7C00
ENDCHAR
STARTCHAR Omacron
ENCODING 332
SWIDTH 612 0
DWIDTH 12 0
BBX 12 18 0 -1
BITMAP
0F00
1080
0F80
3FC0
4220
4220
3FE0
79E0
4920
48A0
48A0
78F0
4890
9FE0
9210
7230
5FE0
2000
ENDCHAR
STARTCHAR omacron
ENCODING 333
SWIDTH 612 0
DWIDTH 12 0
BBX 12 18 0 -1
BITMAP
0F00
1080
0F80
3FC0
4220
4220
3FE0
79E0
4920
48A0
48A0
78F0
4890
9FE0
9210
7230
5FE0
2000
ENDCHAR
STARTCHAR Obreve
ENCODING 334
SWIDTH 612 0
DWIDTH 12 0
BBX 12 20 0 -1
BITMAP
0980
1540
1780
1480
0F00
3FC0
4220
4220
3FE0
79E0
4920
48A0
48A0
78F0
4890
9FE0
9210
7230
5FE0
2000
ENDCHAR
STARTCHAR obreve
ENCODING 335
SWIDTH 612 0
DWIDTH 12 0
BBX 12 20 0 -1
BITMAP
0980
1540
1780
1480
0F00
3FC0
4220
4220
3FE0
79E0
4920
48A0
48A0
78F0
4890
9FE0
9210
7230
5FE0
2000
ENDCHAR
STARTCHAR Ohungarumlaut
ENCODING 336
SWIDTH 612 0
DWIDTH 12 0
BBX 12 20 0 -1
BITMAP
0760
05A0
0B40
0D80
0000
3FC0
4220
4220
3FE0
79E0
4920
48A0
48A0
78F0
4890
9FE0
9210
7230
5FE0
2000
ENDCHAR
STARTCHAR ohungarumlaut
ENCODING 337
SWIDTH 612 0
DWIDTH 12 0
BBX 12 20 0 -1
BITMAP
0760
05A0
0B40
0D80
0000
3FC0
4220
4220
3FE0
79E0
4920
48A0
48A0
78F0
4890
9FE0
9210
7230
5FE0
2000
ENDCHAR
STARTCHAR OE
ENCODING 338
SWIDTH 831 0
DWIDTH 17 0
BBX 17 15 0 -1
BITMAP
3FFF00
425880
426880
3FDF00
78D000
48BC00
48A200
48A200
795C00
48A000
9F5F00
926900
726900
5FFF00
200000
ENDCHAR
STARTCHAR oe
ENCODING 339
SWIDTH 831 0
DWIDTH 17 0
BBX 17 15 0 -1
BITMAP
3FFF00
425880
426880
3FDF00
78D000
48BC00
48A200
48A200
795C00
48A000
9F5F00
926900
726900
5FFF00
200000
ENDCHAR
STARTCHAR Racute
ENCODING 340
SWIDTH 532 0
DWIDTH 11 0
BBX 10 18 1 0
BITMAP
0700
0500
0A00
2C00
5800
8600
C580
B840
D680
B580
9D80
AA00
9100
FB00
9480
A480
9240
F380
ENDCHAR
STARTCHAR racute
ENCODING 341
SWIDTH 532 0
DWIDTH 11 0
BBX 10 18 1 0
BITMAP
0700
0500
0A00
2C00
5800
8600
C580
B840
D680
B580
9D80
AA00
9100
FB00
9480
A480
9240
F380
ENDCHAR
STARTCHAR Rcommaaccent
ENCODING 342
SWIDTH 532 0
DWIDTH 11 0
BBX 10 20 1 -5
BITMAP
2000
5800
8600
C580
B840
D680
B580
9D80
AA00
9100
FB00
9480
A480
9240
B280
4100
1C00
2400
2800
3000
ENDCHAR
STARTCHAR rcommaaccent
ENCODING 343
SWIDTH 532 0
DWIDTH 11 0
BBX 10 20 1 -5
BITMAP
2000
5800
8600
C580
B840
D680
B580
9D80
AA00
9100
FB00
9480
A480
9240
B280
4100
1C00
2400
2800
3000
ENDCHAR
STARTCHAR Rcaron
ENCODING 344
SWIDTH 532 0
DWIDTH 11 0
BBX 10 20 1 0
BITMAP
7700
2900
2A00
1400
1C00
2000
5800
8600
C580
B840
D680
B580
9D80
AA00
9100
FB00
9480
A480
9240
F380
ENDCHAR
STARTCHAR rcaron
ENCODING 345
SWIDTH 532 0
DWIDTH 11 0
BBX 10 20 1 0
BITMAP
7700
2900
2A00
1400
1C00
2000
5800
8600
C580
B840
D680
B580
9D80
AA00
9100
FB00
9480
A480
9240
F380
ENDCHAR
STARTCHAR Sacute
ENCODING 346
SWIDTH 442 0
DWIDTH 9 0
BBX 9 19 0 0
BITMAP
0600
0A00
1400
1C00
0100
5E80
6880
9B80
9400
4800
3400
2400
1200
1600
0900
1900
EC80
8D00
FA00
ENDCHAR
STARTCHAR sacute
ENCODING 347
SWIDTH 442 0
DWIDTH 9 0
BBX 9 19 0 0
BITMAP
0600
0A00
1400
1C00
0100
5E80
6880
9B80
9400
4800
3400
2400
1200
1600
0900
1900
EC80
8D00
FA00
ENDCHAR
STARTCHAR Scircumflex
ENCODING 348
SWIDTH 442 0
DWIDTH 9 0
BBX 9 20 0 0
BITMAP
1C00
2400
2A00
5900
3600
0100
5E80
6880
9B80
9400
4800
3400
2400
1200
1600
0900
1900
EC80
8D00
FA00
ENDCHAR
STARTCHAR scircumflex
ENCODING 349
SWIDTH 442 0
DWIDTH 9 0
BBX 9 20 0 0
BITMAP
1C00
2400
2A00
5900
3600
0100
5E80
6880
9B80
9400
4800
3400
2400
1200
1600
0900
1900
EC80
8D00
FA00
ENDCHAR
STARTCHAR Scedilla
ENCODING 350
SWIDTH 442 0
DWIDTH 9 0
BBX 9 18 0 -4
BITMAP
5F80
6880
9B80
9400
4800
3400
2400
1200
1600
0900
1900
EC80
8D00
BA00
4A00
1A00
2400
3800
ENDCHAR
STARTCHAR scedilla
ENCODING 351
SWIDTH 442 0
DWIDTH 9 0
BBX 9 18 0 -4
BITMAP
5F80
6880
9B80
9400
4800
3400
2400
1200
1600
0900
1900
EC80
8D00
BA00
4A00
1A00
2400
3800
ENDCHAR
STARTCHAR Scaron
ENCODING 352
SWIDTH 442 0
DWIDTH 9 0
BBX 9 20 0 0
BITMAP
7600
5900
2A00
2400
1C00
0100
5E80
6880
9B80
9400
4800
3400
2400
1200
1600
0900
1900
EC80
8D00
FA00
ENDCHAR
STARTCHAR scaron
ENCODING 353
SWIDTH 442 0
DWIDTH 9 0
BBX 9 20 0 0
BITMAP
7600
5900
2A00
2400
1C00
0100
5E80
6880
9B80
9400
4800
3400
2400
1200
1600
0900
1900
EC80
8D00
FA00
ENDCHAR
STARTCHAR Tcommaaccent
ENCODING 354
SWIDTH 453 0
DWIDTH 9 0
BBX 9 19 0 -5
BITMAP
FF80
8880
8A80
F580
1200
1C00
1400
1400
1200
1E00
1400
1400
2200
1C00
0000
1800
2800
5000
3000
ENDCHAR
STARTCHAR tcommaaccent
ENCODING 355
SWIDTH 453 0
DWIDTH 9 0
BBX 9 19 0 -5
BITMAP
FF80
8880
8A80
F580
1200
1C00
1400
1400
1200
1E00
1400
1400
2200
1C00
0000
1800
2800
5000
3000
ENDCHAR
STARTCHAR Tcaron
ENCODING 356
SWIDTH 453 0
DWIDTH 9 0
BBX 9 20 0 0
BITMAP
3700
2D00
2A00
1400
1C00
0000
FF80
8880
8A80
F580
1200
1C00
1400
1400
1200
1E00
1400
1400
2200
1C00
ENDCHAR
STARTCHAR tcaron
ENCODING 357
SWIDTH 453 0
DWIDTH 9 0
BBX 9 20 0 0
BITMAP
3700
2D00
2A00
1400
1C00
0000
FF80
8880
8A80
F580
1200
1C00
1400
1400
1200
1E00
1400
1400
2200
1C00
ENDCHAR
STARTCHAR Tbar
ENCODING 358
SWIDTH 455 0
DWIDTH 9 0
BBX 9 14 0 0
BITMAP
FF80
8880
8880
FF80
1200
1A00
7E00
4100
4100
3E00
1400
1400
2200
3C00
ENDCHAR
STARTCHAR tbar
ENCODING 359
SWIDTH 455 0
DWIDTH 9 0
BBX 9 14 0 0
BITMAP
FF80
8880
8880
FF80
1200
1A00
7E00
4100
4100
3E00
1400
1400
2200
3C00
ENDCHAR
STARTCHAR Utilde
ENCODING 360
SWIDTH 583 0
DWIDTH 12 0
BBX 11 20 0 -1
BITMAP
0EE0
0AA0
1540
2A80
1A80
39C0
4920
4920
4920
79E0
4920
4920
4920
69E0
5120
5FE0
9420
9460
7FE0
2000
ENDCHAR
STARTCHAR utilde
ENCODING 361
SWIDTH 583 0
DWIDTH 12 0
BBX 11 20 0 -1
BITMAP
0EE0
0AA0
1540
2A80
1A80
39C0
4920
4920
4920
79E0
4920
4920
4920
69E0
5120
5FE0
9420
9460
7FE0
2000
ENDCHAR
STARTCHAR Umacron
ENCODING 362
SWIDTH 583 0
DWIDTH 12 0
BBX 11 19 0 -1
BITMAP
0F00
1080
0F00
0000
39C0
4920
4920
4920
79E0
4920
4920
4920
69E0
5120
5FE0
9420
9460
7FE0
2000
ENDCHAR
STARTCHAR umacron
ENCODING 363
SWIDTH 583 0
DWIDTH 12 0
BBX 11 19 0 -1
BITMAP
0F00
1080
0F00
0000
39C0
4920
4920
4920
79E0
4920
4920
4920
69E0
5120
5FE0
9420
9460
7FE0
2000
ENDCHAR
STARTCHAR Ubreve
ENCODING 364
SWIDTH 583 0
DWIDTH 12 0
BBX 11 21 0 -1
BITMAP
1900
2A80
1A80
1500
0F00
0000
39C0
4920
4920
4920
79E0
4920
4920
4920
69E0
5120
5FE0
9420
9460
7FE0
2000
ENDCHAR
STARTCHAR ubreve
ENCODING 365
SWIDTH 583 0
DWIDTH 12 0
BBX 11 21 0 -1
BITMAP
1900
2A80
1A80
1500
0F00
0000
39C0
4920
4920
4920
79E0
4920
4920
4920
69E0
5120
5FE0
9420
9460
7FE0
2000
ENDCHAR
STARTCHAR Uring
ENCODING 366
SWIDTH 583 0
DWIDTH 12 0
BBX 11 21 0 -1
BITMAP
0F00
0B00
1680
1680
1980
0F00
39C0
4920
4920
4920
79E0
4920
4920
4920
69E0
5120
5FE0
9420
9460
7FE0
2000
ENDCHAR
STARTCHAR uring
ENCODING 367
SWIDTH 583 0
DWIDTH 12 0
BBX 11 21 0 -1
BITMAP
0F00
0B00
1680
1680
1980
0F00
39C0
4920
4920
4920
79E0
4920
4920
4920
69E0
5120
5FE0
9420
9460
7FE0
2000
ENDCHAR
STARTCHAR Uhungarumlaut
ENCODING 368
SWIDTH 583 0
DWIDTH 12 0
BBX 11 20 0 -1
BITMAP
06C0
0B60
1780
1D80
0000
39C0
4920
4920
4920
79E0
4920
4920
4920
69E0
5120
5FE0
9420
9460
7FE0
2000
ENDCHAR
STARTCHAR uhungarumlaut
ENCODING 369
SWIDTH 583 0
DWIDTH 12 0
BBX 11 20 0 -1
BITMAP
06C0
0B60
1780
1D80
0000
39C0
4920
4920
4920
79E0
4920
4920
4920
69E0
5120
5FE0
9420
9460
7FE0
2000
ENDCHAR
STARTCHAR Uogonek
ENCODING 370
SWIDTH 583 0
DWIDTH 12 0
BBX 11 19 0 -5
BITMAP
39C0
4920
4920
4920
79E0
4920
4920
4920
69E0
5120
5FE0
9420
9460
7FA0
2140
0140
01A0
00A0
0040
ENDCHAR
STARTCHAR uogonek
ENCODING 371
SWIDTH 583 0
DWIDTH 12 0
BBX 11 19 0 -5
BITMAP
39C0
4920
4920
4920
79E0
4920
4920
4920
69E0
5120
5FE0
9420
9460
7FA0
2140
0140
01A0
00A0
0040
ENDCHAR
STARTCHAR Wcircumflex
ENCODING 372
SWIDTH 735 0
DWIDTH 15 0
BBX 15 18 0 0
BITMAP
0380
0480
0540
0B20
64DC
9392
9494
92A4
4E74
6DEC
4D24
4928
2FE8
3958
2948
2AC8
3288
3E78
ENDCHAR
STARTCHAR wcircumflex
ENCODING 373
SWIDTH 735 0
DWIDTH 15 0
BBX 15 18 0 0
BITMAP
0380
0480
0540
0B20
64DC
9392
9494
92A4
4E74
6DEC
4D24
4928
2FE8
3958
2948
2AC8
3288
3E78
ENDCHAR
STARTCHAR Ycircumflex
ENCODING 374
SWIDTH 484 0
DWIDTH 10 0
BBX 10 19 0 0
BITMAP
1C00
1600
2A00
4D00
3700
4180
A240
9240
8A80
5680
2580
2900
1900
0E00
1200
1200
2400
2400
1800
ENDCHAR
STARTCHAR ycircumflex
ENCODING 375
SWIDTH 484 0
DWIDTH 10 0
BBX 10 19 0 0
BITMAP
1C00
1600
2A00
4D00
3700
4180
A240
9240
8A80
5680
2580
2900
1900
0E00
1200
1200
2400
2400
1800
ENDCHAR
STARTCHAR Ydieresis
ENCODING 376
SWIDTH 484 0
DWIDTH 10 0
BBX 10 17 0 0
BITMAP
7F00
4D00
3700
4180
A240
9240
8A80
5680
2580
2900
1900
0E00
1200
1200
2400
2400
1800
ENDCHAR
STARTCHAR Zacute
ENCODING 377
SWIDTH 458 0
DWIDTH 9 0
BBX 9 18 0 0
BITMAP
0700
0900
0A00
0C00
7F00
4880
4880
7F80
0D00
1200
1200
2400
3400
4C00
4F00
9880
9880
7F00
ENDCHAR
STARTCHAR zacute
ENCODING 378
SWIDTH 458 0
DWIDTH 9 0
BBX 9 18 0 0
BITMAP
0700
0900
0A00
0C00
7F00
4880
4880
7F80
0D00
1200
1200
2400
3400
4C00
4F00
9880
9880
7F00
ENDCHAR
STARTCHAR Zdotaccent
ENCODING 379
SWIDTH 458 0
DWIDTH 9 0
BBX 9 18 0 0
BITMAP
1E00
1400
1C00
0000
7F00
4880
4880
7F80
0D00
1200
1200
2400
3400
4C00
4F00
9880
9880
7F00
ENDCHAR
STARTCHAR zdotaccent
ENCODING 380
SWIDTH 458 0
DWIDTH 9 0
BBX 9 18 0 0
BITMAP
1E00
1400
1C00
0000
7F00
4880
4880
7F80
0D00
1200
1200
2400
3400
4C00
4F00
9880
9880
7F00
ENDCHAR
STARTCHAR Zcaron
ENCODING 381
SWIDTH 458 0
DWIDTH 9 0
BBX 9 19 0 0
BITMAP
3700
2900
2A00
1400
1C00
7F00
4880
4880
7F80
0D00
1200
1200
2400
3400
4C00
4F00
9880
9880
7F00
ENDCHAR
STARTCHAR zcaron
ENCODING 382
SWIDTH 458 0
DWIDTH 9 0
BBX 9 19 0 0
BITMAP
3700
2900
2A00
1400
1C00
7F00
4880
4880
7F80
0D00
1200
1200
2400
3400
4C00
4F00
9880
9880
7F00
ENDCHAR
STARTCHAR AEacute
ENCODING 508
SWIDTH 797 0
DWIDTH 16 0
BBX 16 19 0 0
BITMAP
0060
00A0
0140
00C0
0000
03FE
0529
08A9
093E
19E0
173C
2524
2524
7BFC
4920
9F3E
9131
9131
61DE
ENDCHAR
STARTCHAR aeacute
ENCODING 509
SWIDTH 797 0
DWIDTH 16 0
BBX 16 19 0 0
BITMAP
0060
00A0
0140
00C0
0000
03FE
0529
08A9
093E
19E0
173C
2524
2524
7BFC
4920
9F3E
9131
9131
61DE
ENDCHAR
STARTCHAR Oslashacute
ENCODING 510
SWIDTH 612 0
DWIDTH 12 0
BBX 12 20 0 -1
BITMAP
0180
0280
0500
0200
0000
3FC0
42A0
4320
3E20
7A60
4DA0
4CA0
4920
6970
5690
93E0
A610
4A30
4FE0
3000
ENDCHAR
STARTCHAR oslashacute
ENCODING 511
SWIDTH 612 0
DWIDTH 12 0
BBX 12 20 0 -1
BITMAP
0180
0280
0500
0200
0000
3FC0
42A0
4320
3E20
7A60
4DA0
4CA0
4920
6970
5690
93E0
A610
4A30
4FE0
3000
ENDCHAR
STARTCHAR dotlessj
ENCODING 567
SWIDTH 482 0
DWIDTH 10 0
BBX 9 15 0 -1
BITMAP
0380
0480
0480
0480
0780
0480
0480
E480
9780
8C80
5480
2480
1280
1380
0C00
ENDCHAR
STARTCHAR circumflex
ENCODING 710
SWIDTH 308 0
DWIDTH 6 0
BBX 6 5 0 15
BITMAP
30
48
94
B4
CC
ENDCHAR
STARTCHAR caron
ENCODING 711
SWIDTH 310 0
DWIDTH 6 0
BBX 6 5 0 15
BITMAP
EC
B4
58
48
30
ENDCHAR
STARTCHAR breve
ENCODING 728
SWIDTH 333 0
DWIDTH 7 0
BBX 7 5 0 15
BITMAP
4C
AA
BC
A4
78
ENDCHAR
STARTCHAR dotaccent
ENCODING 729
SWIDTH 166 0
DWIDTH 3 0
BBX 3 3 0 15
BITMAP
E0
A0
E0
ENDCHAR
STARTCHAR ring
ENCODING 730
SWIDTH 309 0
DWIDTH 6 0
BBX 6 6 0 15
BITMAP
28
58
94
B4
CC
78
ENDCHAR
STARTCHAR ogonek
ENCODING 731
SWIDTH 226 0
DWIDTH 5 0
BBX 5 6 0 -5
BITMAP
70
A0
A0
50
68
10
ENDCHAR
STARTCHAR tilde
ENCODING 732
SWIDTH 410 0
DWIDTH 8 0
BBX 8 5 0 15
BITMAP
33
4D
95
B2
CC
ENDCHAR
STARTCHAR hungarumlaut
ENCODING 733
SWIDTH 361 0
DWIDTH 7 0
BBX 7 4 0 15
BITMAP
76
5A
B4
DC
ENDCHAR
STARTCHAR uni0312
ENCODING 786
SWIDTH 202 0
DWIDTH 4 0
BBX 4 4 0 10
BITMAP
30
50
A0
E0
ENDCHAR
STARTCHAR uni0315
ENCODING 789
SWIDTH 202 0
DWIDTH 4 0
BBX 4 4 0 10
BITMAP
30
50
A0
E0
ENDCHAR
STARTCHAR uni0326
ENCODING 806
SWIDTH 201 0
DWIDTH 4 0
BBX 4 4 0 -5
BITMAP
70
50
A0
C0
ENDCHAR
STARTCHAR Wgrave
ENCODING 7808
SWIDTH 735 0
DWIDTH 15 0
BBX 15 18 0 0
BITMAP
0700
0500
0280
0300
601C
9392
9494
92A4
4E74
6DEC
4D24
4928
2FE8
3958
2948
2AC8
3288
3E78
ENDCHAR
STARTCHAR wgrave
ENCODING 7809
SWIDTH 735 0
DWIDTH 15 0
BBX 15 18 0 0
BITMAP
0700
0500
0280
0300
601C
9392
9494
92A4
4E74
6DEC
4D24
4928
2FE8
3958
2948
2AC8
3288
3E78
ENDCHAR
STARTCHAR Wacute
ENCODING 7810
SWIDTH 735 0
DWIDTH 15 0
BBX 15 18 0 0
BITMAP
00E0
0120
0140
0180
601C
9392
9494
92A4
4E74
6DEC
4D24
4928
2FE8
3958
2948
2AC8
3288
3E78
ENDCHAR
STARTCHAR wacute
ENCODING 7811
SWIDTH 735 0
DWIDTH 15 0
BBX 15 18 0 0
BITMAP
00E0
0120
0140
0180
601C
9392
9494
92A4
4E74
6DEC
4D24
4928
2FE8
3958
2948
2AC8
3288
3E78
ENDCHAR
STARTCHAR Wdieresis
ENCODING 7812
SWIDTH 735 0
DWIDTH 15 0
BBX 15 17 0 0
BITMAP
0EE0
0AA0
0EC0
601C
9392
9494
92A4
4E74
6DEC
4D24
4928
2FE8
3958
2948
2AC8
3288
3E78
ENDCHAR
STARTCHAR wdieresis
ENCODING 7813
SWIDTH 735 0
DWIDTH 15 0
BBX 15 17 0 0
BITMAP
0EE0
0AA0
0EC0
601C
9392
9494
92A4
4E74
6DEC
4D24
4928
2FE8
3958
2948
2AC8
3288
3E78
ENDCHAR
STARTCHAR Ygrave
ENCODING 7922
SWIDTH 484 0
DWIDTH 10 0
BBX 10 18 0 0
BITMAP
3800
1400
1400
0C00
4180
A240
9240
8A80
5680
2580
2900
1900
0E00
1200
1200
2400
2400
1800
ENDCHAR
STARTCHAR ygrave
ENCODING 7923
SWIDTH 484 0
DWIDTH 10 0
BBX 10 18 0 0
BITMAP
3800
1400
1400
0C00
4180
A240
9240
8A80
5680
2580
2900
1900
0E00
1200
1200
2400
2400
1800
ENDCHAR
STARTCHAR endash
ENCODING 8211
SWIDTH 591 0
DWIDTH 12 0
BBX 11 4 0 5
BITMAP
7700
89E0
8920
7FE0
ENDCHAR
STARTCHAR emdash
ENCODING 8212
SWIDTH 726 0
DWIDTH 15 0
BBX 14 4 0 5
BITMAP
6000
9FFC
8444
7FFC
ENDCHAR
STARTCHAR quoteleft
ENCODING 8216
SWIDTH 291 0
DWIDTH 6 0
BBX 6 8 0 7
BITMAP
18
24
24
68
58
50
90
F0
ENDCHAR
STARTCHAR quoteright
ENCODING 8217
SWIDTH 291 0
DWIDTH 6 0
BBX 6 8 0 7
BITMAP
18
24
24
68
58
50
90
F0
ENDCHAR
STARTCHAR quotesinglbase
ENCODING 8218
SWIDTH 228 0
DWIDTH 5 0
BBX 5 6 -1 -3
BITMAP
10
28
48
90
90
60
ENDCHAR
STARTCHAR quotedblleft
ENCODING 8220
SWIDTH 532 0
DWIDTH 11 0
BBX 11 8 0 7
BITMAP
19C0
2520
2540
6B40
5AC0
5480
9480
F780
ENDCHAR
STARTCHAR quotedblright
ENCODING 8221
SWIDTH 532 0
DWIDTH 11 0
BBX 11 8 0 7
BITMAP
19C0
2520
2540
6B40
5AC0
5480
9480
F780
ENDCHAR
STARTCHAR quotedblbase
ENCODING 8222
SWIDTH 448 0
DWIDTH 9 0
BBX 10 6 -1 -3
BITMAP
1180
2A40
4A40
9480
9500
6200
ENDCHAR
STARTCHAR dagger
ENCODING 8224
SWIDTH 453 0
DWIDTH 9 0
BBX 9 16 0 -1
BITMAP
1C00
1200
1400
F380
9280
AA80
5500
1400
1400
1A00
1600
1400
1400
1400
2200
1C00
ENDCHAR
STARTCHAR daggerdbl
ENCODING 8225
SWIDTH 462 0
DWIDTH 9 0
BBX 9 16 0 -1
BITMAP
1E00
1200
1200
F380
9280
9E80
7300
1400
1200
5A00
B780
9480
B780
5400
2200
1C00
ENDCHAR
STARTCHAR bullet
ENCODING 8226
SWIDTH 275 0
DWIDTH 6 0
BBX 3 3 1 6
BITMAP
E0
A0
E0
ENDCHAR
STARTCHAR ellipsis
ENCODING 8230
SWIDTH 605 0
DWIDTH 12 0
BBX 12 3 0 0
BITMAP
6670
9990
FFF0
ENDCHAR
STARTCHAR perthousand
ENCODING 8240
SWIDTH 1249 0
DWIDTH 25 0
BBX 25 14 0 0
BITMAP
7C600000
62900000
9E900000
AAA00000
AAA00000
DAE00000
CAAF1E00
3D58B180
01D7AD00
0156AA80
0156AA80
025EBC80
02726480
018F9F00
ENDCHAR
STARTCHAR guilsinglleft
ENCODING 8249
SWIDTH 359 0
DWIDTH 7 0
BBX 7 9 0 3
BITMAP
08
14
22
C4
98
E8
44
22
1C
ENDCHAR
STARTCHAR guilsinglright
ENCODING 8250
SWIDTH 359 0
DWIDTH 7 0
BBX 6 9 1 3
BITMAP
40
A0
98
C4
24
7C
88
90
E0
ENDCHAR
STARTCHAR fraction
ENCODING 8260
SWIDTH 266 0
DWIDTH 5 0
BBX 5 13 0 0
BITMAP
38
28
28
68
58
50
50
70
90
90
A0
A0
40
ENDCHAR
STARTCHAR Euro
ENCODING 8364
SWIDTH 690 0
DWIDTH 14 0
BBX 13 15 0 -1
BITMAP
0FF8
0848
0888
07F8
3F00
4900
2900
7900
8D00
8A00
73F8
1288
1688
0BF0
0400
ENDCHAR
STARTCHAR partialdiff
ENCODING 8706
SWIDTH 519 0
DWIDTH 10 0
BBX 10 15 0 -1
BITMAP
0700
0900
0900
0900
0780
0C80
1480
2480
D580
BA40
CE40
4240
3240
09C0
0600
ENDCHAR
STARTCHAR minus
ENCODING 8722
SWIDTH 467 0
DWIDTH 9 0
BBX 8 4 1 5
BITMAP
F2
8D
89
FF
ENDCHAR
STARTCHAR fi
ENCODING 64257
SWIDTH 741 0
DWIDTH 15 0
BBX 13 14 1 0
BITMAP
FF38
98C8
98C8
9F48
F078
9C48
A248
9248
FC78
9048
A048
A048
9048
E078
ENDCHAR
STARTCHAR fl
ENCODING 64258
SWIDTH 942 0
DWIDTH 19 0
BBX 18 14 1 0
BITMAP
FF3800
98C800
98C800
9F4800
F07800
9C4800
A24800
924800
FC7800
904800
A04FC0
A04C40
904C40
E07FC0
ENDCHAR
STARTCHAR .notdef
ENCODING -1
SWIDTH 200 0
DWIDTH 4 0
BBX 1 1 0 0
BITMAP
00
ENDCHAR
STARTCHAR .null
ENCODING -1
SWIDTH 0 0
DWIDTH 0 0
BBX 1 1 0 0
BITMAP
00
ENDCHAR
STARTCHAR nonmarkingreturn
ENCODING -1
SWIDTH 200 0
DWIDTH 4 0
BBX 1 1 0 0
BITMAP
00
ENDCHAR
ENDFONT
